<?xml version="1.0" encoding="UTF-8" standalone="no"?>
<!-- Generator: Adobe Illustrator 15.0.2, SVG Export Plug-In . SVG Version: 6.00 Build 0)  -->
<svg xmlns:rdf="http://www.w3.org/1999/02/22-rdf-syntax-ns#" xmlns="http://www.w3.org/2000/svg" enable-background="new 0 0 28.347 28.347" xml:space="preserve" viewBox="0 0 25 25" version="1.1" y="0px" x="0px" xmlns:cc="http://creativecommons.org/ns#" xmlns:dc="http://purl.org/dc/elements/1.1/"><metadata><rdf:RDF><cc:Work rdf:about=""><dc:format>image/svg+xml</dc:format><dc:type rdf:resource="http://purl.org/dc/dcmitype/StillImage"/><dc:title/></cc:Work></rdf:RDF></metadata>
<g transform="matrix(1.3025528,0,0,1.3024114,-5.7613713,-4.9110542)">
	<path d="m23.232,20.738c0,1.018-0.824,1.844-1.844,1.844h-14.738c-1.018,0-1.843-0.826-1.843-1.844v-14.739c0-1.018,0.825-1.844,1.843-1.844h14.738c1.02,0,1.844,0.826,1.844,1.844v14.739z" stroke="#FFF" stroke-width="0.76776487" fill="#e17000"/>
	<line stroke-width="1.1516" y2="10.123" x2="6.793" stroke="#FFF" stroke-linecap="round" y1="15.963" x1="21.247" fill="none"/>
	<circle d="m 15.562,14.488 c 0,1.174157 -0.951843,2.126 -2.126,2.126 -1.174157,0 -2.126,-0.951843 -2.126,-2.126 0,-1.174157 0.951843,-2.126 2.126,-2.126 1.174157,0 2.126,0.951843 2.126,2.126 z" cy="14.488" cx="13.436" r="2.126" fill="#FFF"/>
</g>
</svg>
