<?xml version="1.0" encoding="UTF-8" standalone="no"?>
<svg xmlns:rdf="http://www.w3.org/1999/02/22-rdf-syntax-ns#" xmlns="http://www.w3.org/2000/svg" xmlns:cc="http://creativecommons.org/ns#" xmlns:dc="http://purl.org/dc/elements/1.1/" version="1.1" xml:space="preserve" height="25" width="25" enable-background="new 0 0 28.347 28.347" y="0px" x="0px" viewBox="0 0 25 25">
  <metadata>
    <rdf:RDF>
      <cc:Work rdf:about="">
        <dc:format>image/svg+xml</dc:format>
        <dc:type rdf:resource="http://purl.org/dc/dcmitype/StillImage"/>
        <dc:title/>
      </cc:Work>
    </rdf:RDF>
  </metadata>
  <g transform="matrix(1.3025528,0,0,1.3024114,-6.2615516,-0.98037663)">
    <path stroke="#FFF" stroke-width="0.76776487" d="m23.616,17.72c0,1.018-0.824,1.844-1.844,1.844h-14.738c-1.018,0-1.843-0.826-1.843-1.844v-14.739c0-1.018,0.825-1.844,1.843-1.844h14.738c1.02,0,1.844,0.826,1.844,1.844v14.739z" fill="#39870c"/>
    <ellipse d="M 15.433,16.283001 C 15.433,16.957341 14.873804,17.504001 14.184,17.504001 13.494196,17.504001 12.935,16.957341 12.935,16.283001 12.935,15.608661 13.494196,15.062001 14.184,15.062001 14.873804,15.062001 15.433,15.608661 15.433,16.283001 z" rx="1.249" ry="1.221" transform="translate(0,-3.3470001)" cy="16.283" cx="14.184" fill="#FFF"/>
    <g transform="translate(0,-3.3470001)" fill="#FFF">
      <path d="m18.763,20.691h-1.508l0.229-5.734s-2.169,0.163-2.899-1.368c-0.73-1.53-0.042-2.673,0.104-2.917,0.146-0.245,0.562-0.571,0.562-0.571s-0.688-3.511,2.525-3.49c3.212,0.02,2.523,3.511,2.523,3.511s1.211,0.633,1.189,2.122-0.898,2.184-1.523,2.429c-0.626,0.244-1.502,0.285-1.502,0.285l0.3,5.733z"/>
      <path d="m7.316,19.903v0.88h4.881l1.964-2.19,0.771,1.311h-0.936v0.88h2.422l-1.67-3.141-1.854-0.449-1.449,1.884s-0.845-1.185-1.193-1.435c-0.348-0.251-0.973-0.125-1.321,0.376-0.348,0.503-0.733,1.885-0.733,1.885h-0.882zm1.748,0s0.234-1.256,0.655-1.274c0.423-0.018,0.918,1.274,0.918,1.274h-1.573z"/>
    </g>
  </g>
</svg>
