<?xml version="1.0" encoding="UTF-8" standalone="no"?>
<svg xmlns:rdf="http://www.w3.org/1999/02/22-rdf-syntax-ns#" xmlns="http://www.w3.org/2000/svg" xmlns:cc="http://creativecommons.org/ns#" xmlns:dc="http://purl.org/dc/elements/1.1/" version="1.1" xml:space="preserve" height="25" width="25" enable-background="new 0 0 28.347 28.347" y="0px" x="0px" viewBox="0 0 25 25">
  <metadata>
    <rdf:RDF>
      <cc:Work rdf:about="">
        <dc:format>image/svg+xml</dc:format>
        <dc:type rdf:resource="http://purl.org/dc/dcmitype/StillImage"/>
        <dc:title/>
      </cc:Work>
    </rdf:RDF>
  </metadata>
  <g transform="matrix(1.302577,0,0,1.3023408,-6.261668,-5.264999)">
    <path stroke="#FFF" stroke-width="0.76777852" d="m23.616,21.011c0,1.018-0.824,1.844-1.844,1.844h-14.738c-1.018,0-1.843-0.826-1.843-1.844v-14.74c0-1.018,0.825-1.844,1.843-1.844h14.738c1.02,0,1.844,0.826,1.844,1.844v14.74z" fill="#39870c"/>
    <line stroke-width="1.1517" x1="21.632" y1="16.233" stroke="#FFF" stroke-linecap="round" x2="7.177" y2="10.394" fill="none"/>
    <circle d="M 15.946,14.758 C 15.946,15.932158 14.994157,16.884 13.82,16.884 12.645842,16.884 11.694,15.932158 11.694,14.758 11.694,13.583843 12.645842,12.632 13.82,12.632 14.994157,12.632 15.946,13.583843 15.946,14.758 z" cy="14.758" cx="13.82" r="2.126" fill="#FFF"/>
  </g>
</svg>
