<?xml version="1.0" encoding="UTF-8" standalone="no"?>
<!-- Generator: Adobe Illustrator 15.0.2, SVG Export Plug-In . SVG Version: 6.00 Build 0)  -->
<svg xmlns:rdf="http://www.w3.org/1999/02/22-rdf-syntax-ns#" xmlns="http://www.w3.org/2000/svg" enable-background="new 0 0 28.347 28.347" xml:space="preserve" viewBox="0 0 25 25" version="1.1" y="0px" x="0px" xmlns:cc="http://creativecommons.org/ns#" xmlns:dc="http://purl.org/dc/elements/1.1/"><metadata><rdf:RDF><cc:Work rdf:about=""><dc:format>image/svg+xml</dc:format><dc:type rdf:resource="http://purl.org/dc/dcmitype/StillImage"/><dc:title/></cc:Work></rdf:RDF></metadata>
<g transform="matrix(1.2870013,0,0,1.2868688,-6.1808237,-0.56691736)"><path d="m23.616,17.635c0,1.018-0.824,1.844-1.844,1.844h-14.738c-1.018,0-1.843-0.826-1.843-1.844v-14.739c0-1.018,0.825-1.844,1.843-1.844h14.738c1.02,0,1.844,0.826,1.844,1.844v14.739z" stroke="#FFF" stroke-width="0.77704" fill="#007bc7"/><polyline transform="translate(0,-3.3470001)" stroke="#FFF" points="22.031,9.513,21.031,9.513,17.57,17.713,11.237,17.713,7.776,9.513,6.776,9.513" stroke-width="0.77704" fill="none"/><path d="m16.611,8.787c-0.758,0-1.263-0.426-1.629-0.738-0.289-0.242-0.466-0.383-0.66-0.383-0.241,0-0.512,0.195-0.823,0.418-0.438,0.312-0.978,0.703-1.699,0.703-0.774,0-1.263-0.438-1.623-0.758-0.285-0.258-0.42-0.363-0.582-0.363v-1.5c0.75,0,1.236,0.434,1.582,0.746,0.297,0.266,0.438,0.375,0.623,0.375,0.242,0,0.511-0.195,0.824-0.418,0.432-0.312,0.971-0.703,1.698-0.703,0.754,0,1.259,0.426,1.625,0.738,0.59,0.496,0.772,0.465,1.384-0.008,0.418-0.324,0.936-0.73,1.715-0.73v1.5c-0.25,0-0.457,0.152-0.797,0.414-0.408,0.316-0.91,0.707-1.638,0.707" fill="#FFF"/></g>
</svg>
