<?xml version="1.0" encoding="UTF-8" standalone="no"?>
<svg xmlns:rdf="http://www.w3.org/1999/02/22-rdf-syntax-ns#" xmlns="http://www.w3.org/2000/svg" xmlns:cc="http://creativecommons.org/ns#" xmlns:dc="http://purl.org/dc/elements/1.1/" xml:space="preserve" height="25" width="25" version="1.1" viewBox="0 0 25 25">
  <metadata>
    <rdf:RDF>
      <cc:Work rdf:about="">
        <dc:format>image/svg+xml</dc:format>
        <dc:type rdf:resource="http://purl.org/dc/dcmitype/StillImage"/>
        <dc:title/>
      </cc:Work>
    </rdf:RDF>
  </metadata>
  <g transform="matrix(1.2870013,0,0,1.2868688,-5.5431477,-4.7756034)">
    <path stroke="#FFF" d="m23.232,20.794c0,1.018-0.824,1.844-1.844,1.844h-14.738c-1.018,0-1.843-0.826-1.843-1.844v-14.739c0-1.018,0.825-1.844,1.843-1.844h14.738c1.02,0,1.844,0.826,1.844,1.844v14.739z" fill="#e17000"/>
    <line x1="19.445" y1="17.986" stroke="#FFF" x2="15.902" y2="12.323" fill="none"/>
    <line x1="8.653" y1="17.921" stroke="#FFF" x2="12.197" y2="12.258" fill="none"/>
    <circle d="M 16.147,9.4239998 C 16.147,10.598157 15.195157,11.55 14.021,11.55 12.846843,11.55 11.895,10.598157 11.895,9.4239998 11.895,8.2498424 12.846843,7.2979999 14.021,7.2979999 15.195157,7.2979999 16.147,8.2498424 16.147,9.4239998 z" cy="9.424" cx="14.021" r="2.126" fill="#FFF"/>
    <line x1="14.02" y1="19.344" stroke="#FFF" x2="14.02" y2="12.804" fill="none"/>
  </g>
</svg>
