<?xml version="1.0" encoding="UTF-8" standalone="no"?>
<svg xmlns:rdf="http://www.w3.org/1999/02/22-rdf-syntax-ns#" xmlns="http://www.w3.org/2000/svg" xmlns:cc="http://creativecommons.org/ns#" xmlns:dc="http://purl.org/dc/elements/1.1/" version="1.1" xml:space="preserve" height="25" width="25" enable-background="new 0 0 28.347 28.347" y="0px" x="0px" viewBox="0 0 25 25">
  <metadata>
    <rdf:RDF>
      <cc:Work rdf:about="">
        <dc:format>image/svg+xml</dc:format>
        <dc:type rdf:resource="http://purl.org/dc/dcmitype/StillImage"/>
        <dc:title/>
      </cc:Work>
    </rdf:RDF>
  </metadata>
  <g transform="matrix(1.302577,0,0,1.3023408,-5.8695923,-5.322302)">
    <path stroke="#FFF" stroke-width="0.76777852" d="m23.315,21.055c0,1.018-0.824,1.844-1.844,1.844h-14.738c-1.018,0-1.843-0.826-1.843-1.844v-14.74c0-1.018,0.825-1.844,1.843-1.844h14.738c1.02,0,1.844,0.826,1.844,1.844v14.74z" fill="#42145f"/>
    <rect height="1.7" width="5.669" y="6.177" x="9.376" fill="#FFF"/>
    <rect height="1.701" width="2.835" y="16.163" x="9.376" fill="#FFF"/>
    <rect height="1.701" width="5.669" y="19.492" x="9.376" fill="#FFF"/>
    <rect height="1.701" width="5.669" y="12.834" x="9.376" fill="#FFF"/>
    <rect height="1.701" width="2.835" y="9.505" x="9.376" fill="#FFF"/>
  </g>
</svg>
