<?xml version="1.0" encoding="UTF-8" standalone="no"?>
<svg xmlns:rdf="http://www.w3.org/1999/02/22-rdf-syntax-ns#" xmlns="http://www.w3.org/2000/svg" xmlns:cc="http://creativecommons.org/ns#" xmlns:dc="http://purl.org/dc/elements/1.1/" version="1.1" xml:space="preserve" height="25" width="25" enable-background="new 0 0 28.347 28.347" y="0px" x="0px" viewBox="0 0 25 25">
  <metadata>
    <rdf:RDF>
      <cc:Work rdf:about="">
        <dc:format>image/svg+xml</dc:format>
        <dc:type rdf:resource="http://purl.org/dc/dcmitype/StillImage"/>
        <dc:title/>
      </cc:Work>
    </rdf:RDF>
  </metadata>
  <g transform="matrix(1.302578,0,0,1.3024366,-5.7614928,-1.0980893)">
    <path stroke="#FFF" stroke-width="0.76774997" d="m23.232,17.81c0,1.018-0.824,1.844-1.844,1.844h-14.738c-1.018,0-1.843-0.826-1.843-1.844v-14.739c0-1.018,0.825-1.844,1.843-1.844h14.738c1.02,0,1.844,0.826,1.844,1.844v14.739z" fill="#e17000"/>
    <path d="m19.567,11.711c-0.292-0.105-0.591-0.148-0.885-0.156l-0.244-2.123,0.695-0.693,0.553,0.199c0.156,0.057,0.327-0.023,0.385-0.18,0.056-0.156-0.025-0.327-0.182-0.385l-1.793-0.645c-0.156-0.058-0.328,0.023-0.385,0.18-0.057,0.155,0.025,0.327,0.18,0.383l0.002,0.001,0.615,0.222-0.48,0.479-4.762-1.733,0.786-0.914,1,0.364c0.156,0.057,0.327-0.024,0.384-0.18s-0.022-0.327-0.179-0.385l-1.194-0.435c-0.118-0.042-0.25-0.009-0.33,0.087l-2.612,3.038c-0.196-0.138-0.407-0.261-0.646-0.348-1.472-0.536-3.098,0.224-3.633,1.694-0.535,1.472,0.221,3.098,1.693,3.634,1.473,0.536,3.1-0.223,3.635-1.694,0.376-1.034,0.103-2.137-0.598-2.893l0.741-0.86,2.04,4.56c0.004,0.009,0.016,0.01,0.021,0.019,0.034,0.062,0.084,0.115,0.15,0.14l1.363,0.496c-0.414,1.423,0.326,2.943,1.74,3.457,1.472,0.536,3.099-0.223,3.634-1.692,0.536-1.474-0.222-3.101-1.694-3.637zm-7.967,0.203c-0.421,1.156-1.7,1.752-2.856,1.332-1.156-0.422-1.753-1.701-1.332-2.857s1.7-1.754,2.856-1.332c0.167,0.061,0.317,0.144,0.461,0.236l-1.504,1.75c-0.108,0.125-0.094,0.314,0.033,0.423,0.026,0.023,0.06,0.042,0.092,0.055,0.114,0.041,0.246,0.01,0.329-0.087l1.497-1.743c0.516,0.591,0.712,1.432,0.424,2.223zm3.125,0.371-1.978-4.421,0.102-0.119,4.711,1.715l-2.835,2.825zm3.17-2.315,0.188,1.629c-0.821,0.153-1.551,0.662-1.966,1.428l-0.941-0.343,2.719-2.714zm0.257,2.229,0.188,1.638-1.654-0.603c0.326-0.546,0.865-0.911,1.466-1.035zm-0.317,4.271c-1.098-0.4-1.682-1.573-1.375-2.681l2.133,0.776c0.096,0.035,0.205,0.018,0.286-0.046,0.082-0.064,0.125-0.167,0.112-0.27l-0.239-2.089c0.202,0.015,0.407,0.047,0.608,0.119,1.156,0.422,1.754,1.701,1.333,2.858-0.421,1.159-1.701,1.754-2.858,1.333z" fill="#FFF"/>
    <path d="m11.821,17.211c-0.565-1.737-1.769-4.294-2.56-4.294-0.652,0-1.753,2.224-2.398,4.294h-0.784c0.253-0.811,1.663-5.102,3.183-5.102,1.611,0,3.102,4.292,3.364,5.102h-0.805z" fill="#FFF"/>
  </g>
</svg>
