<?xml version="1.0" encoding="UTF-8" standalone="no"?>
<svg xmlns:rdf="http://www.w3.org/1999/02/22-rdf-syntax-ns#" xmlns="http://www.w3.org/2000/svg" xmlns:cc="http://creativecommons.org/ns#" xmlns:dc="http://purl.org/dc/elements/1.1/" version="1.1" xml:space="preserve" height="25" width="25" enable-background="new 0 0 28.347 28.347" y="0px" x="0px" viewBox="0 0 25 25">
  <metadata>
    <rdf:RDF>
      <cc:Work rdf:about="">
        <dc:format>image/svg+xml</dc:format>
        <dc:type rdf:resource="http://purl.org/dc/dcmitype/StillImage"/>
        <dc:title/>
      </cc:Work>
    </rdf:RDF>
  </metadata>
  <g transform="matrix(1.2870729,0,0,1.2868634,-5.6515895,-0.6343713)">
    <path stroke="#FFF" d="m23.315,17.576c0,1.018-0.824,1.844-1.844,1.844h-14.738c-1.018,0-1.842-0.826-1.842-1.844v-14.739c0-1.018,0.824-1.844,1.842-1.844h14.738c1.02,0,1.844,0.826,1.844,1.844v14.739z" fill="#007bc7"/>
    <g transform="translate(0,-3.3470001)" fill="#FFF">
      <polygon points="19.354,11.159,20.254,19.663,15.902,19.663,16.803,11.159"/>
      <rect y="7.442" width="2.551" x="16.803" height="2.834"/>
      <polygon points="11.403,11.159,12.304,19.663,7.952,19.663,8.853,11.159"/>
      <rect y="7.442" width="2.551" x="8.853" height="2.834"/>
    </g>
    <g transform="translate(0,-3.3470001)">
      <rect height="2" width="15.59" stroke="#007bc7" y="14.335" x="6.309" stroke-width="1.5" fill="none"/>
      <rect height="2" width="15.59" y="14.335" x="6.309" fill="#FFF"/>
    </g>
  </g>
</svg>
