<?xml version="1.0" encoding="UTF-8" standalone="no"?>
<svg xmlns:rdf="http://www.w3.org/1999/02/22-rdf-syntax-ns#" xmlns="http://www.w3.org/2000/svg" xmlns:cc="http://creativecommons.org/ns#" xmlns:dc="http://purl.org/dc/elements/1.1/" height="25" width="25" version="1.1">
  <metadata>
    <rdf:RDF>
      <cc:Work rdf:about="">
        <dc:format>image/svg+xml</dc:format>
        <dc:type rdf:resource="http://purl.org/dc/dcmitype/StillImage"/>
        <dc:title/>
      </cc:Work>
    </rdf:RDF>
  </metadata>
  <g transform="translate(0.00801,-1027.3728)">
    <g transform="translate(-271.38301,999.84153)">
      <path stroke="#FFF" stroke-width="1" d="m295.88,49.619c0,1.3259-1.0733,2.4016-2.4019,2.4016h-19.197c-1.326,0-2.4006-1.0758-2.4006-2.4016v-19.196c0-1.3259,1.0746-2.4016,2.4006-2.4016h19.197c1.3286,0,2.4019,1.0758,2.4019,2.4016v19.196z" fill="#535353"/>
      <g transform="matrix(1.3025528,0,0,1.3024114,265.12146,22.311351)">
        <polyline stroke-width="0.76776487" stroke="#FFF" points="22.031,9.497,19.031,9.497,15.57,17.697,7.589,17.697" fill="none"/>
        <path d="m14.611,12.118c-0.758,0-1.263-0.426-1.629-0.738-0.289-0.242-0.466-0.383-0.66-0.383-0.241,0-0.512,0.195-0.823,0.418-0.438,0.312-0.978,0.703-1.699,0.703-0.774,0-1.263-0.438-1.623-0.758-0.285-0.258-0.42-0.363-0.582-0.363v-1.5c0.75,0,1.236,0.434,1.582,0.746,0.297,0.266,0.438,0.375,0.623,0.375,0.242,0,0.511-0.195,0.824-0.418,0.432-0.312,0.971-0.703,1.698-0.703,0.754,0,1.259,0.426,1.625,0.738,0.59,0.496,0.772,0.465,1.384-0.008,0.418-0.324,0.936-0.73,1.715-0.73v1.5c-0.25,0-0.457,0.152-0.797,0.414-0.408,0.317-0.91,0.707-1.638,0.707" fill="#FFF"/>
      </g>
    </g>
  </g>
</svg>
