<?xml version="1.0" encoding="UTF-8" standalone="no"?>
<svg xmlns:rdf="http://www.w3.org/1999/02/22-rdf-syntax-ns#" xmlns="http://www.w3.org/2000/svg" xmlns:cc="http://creativecommons.org/ns#" xmlns:dc="http://purl.org/dc/elements/1.1/" enable-background="new 0 0 28.347 28.347" xml:space="preserve" height="25" viewBox="0 0 25 25" width="25" version="1.1" y="0px" x="0px">
  <metadata>
    <rdf:RDF>
      <cc:Work rdf:about="">
        <dc:format>image/svg+xml</dc:format>
        <dc:type rdf:resource="http://purl.org/dc/dcmitype/StillImage"/>
        <dc:title/>
      </cc:Work>
    </rdf:RDF>
  </metadata>
  <g transform="matrix(1.2870013,0,0,1.2868688,-6.0373562,-5.0715832)">
    <path fill="#39870c" d="m23.616,21.024c0,1.018-0.824,1.844-1.844,1.844h-14.738c-1.018,0-1.843-0.826-1.843-1.844v-14.739c0-1.018,0.825-1.844,1.843-1.844h14.738c1.02,0,1.844,0.826,1.844,1.844v14.739z" stroke="#FFF"/>
    <path fill="#FFF" d="m13.427,9.994c0.041-0.189,0.064-0.385,0.064-0.585,0-1.526-1.236-2.765-2.764-2.765-1.526,0-2.764,1.238-2.764,2.765,0,0.184,0.02,0.362,0.054,0.536-0.633,0.345-1.069,1.008-1.069,1.779,0,1.123,0.911,2.033,2.033,2.033,0.488,0,0.931-0.176,1.281-0.463v1.854h0.93v-2.063c0.35,0.356,0.832,0.582,1.372,0.582,1.073,0,1.942-0.869,1.942-1.942,0.001-0.761-0.442-1.413-1.079-1.731z"/>
    <path fill="#FFF" d="m20.533,15.448c0.041-0.189,0.064-0.385,0.064-0.585,0-1.526-1.236-2.765-2.764-2.765-1.526,0-2.764,1.238-2.764,2.765,0,0.184,0.021,0.362,0.054,0.536-0.633,0.345-1.068,1.008-1.068,1.779,0,1.123,0.91,2.033,2.033,2.033,0.487,0,0.931-0.176,1.28-0.463v1.854h0.93v-2.063c0.35,0.356,0.832,0.582,1.372,0.582,1.073,0,1.942-0.869,1.942-1.942,0.001-0.761-0.441-1.412-1.079-1.731z"/>
  </g>
</svg>
