<?xml version="1.0" encoding="UTF-8" standalone="no"?>
<!-- Generator: Adobe Illustrator 15.0.2, SVG Export Plug-In . SVG Version: 6.00 Build 0)  -->
<svg xmlns:rdf="http://www.w3.org/1999/02/22-rdf-syntax-ns#" xmlns="http://www.w3.org/2000/svg" enable-background="new 0 0 28.347 28.347" xml:space="preserve" viewBox="0 0 25 25" version="1.1" y="0px" x="0px" xmlns:cc="http://creativecommons.org/ns#" xmlns:dc="http://purl.org/dc/elements/1.1/"><metadata><rdf:RDF><cc:Work rdf:about=""><dc:format>image/svg+xml</dc:format><dc:type rdf:resource="http://purl.org/dc/dcmitype/StillImage"/><dc:title/></cc:Work></rdf:RDF></metadata>
<g transform="matrix(1.302577,0,0,1.3025063,-5.8709041,-1.5331934)"><path d="m23.316,18.143c0,1.018-0.824,1.844-1.843,1.844h-14.739c-1.018,0-1.843-0.826-1.843-1.844v-14.738c0-1.018,0.825-1.844,1.843-1.844h14.739c1.019,0,1.843,0.826,1.843,1.844v14.738z" stroke="#FFF" stroke-width="0.76772976" fill="#d52b1e"/><path d="m21.899,8.185h-8.18l-7.411,5.264h11.42l4.171-5.264zm-3.355,2.816h-7.696l1.373-1.004h7.162l-0.839,1.004zm1.959-2.296-0.599,0.717h-6.933l0.98-0.717h6.552zm-12.205,4.193,1.767-1.291h7.925l-1.08,1.291h-8.612z" fill="#FFF"/></g>
</svg>
