<?xml version="1.0" encoding="UTF-8" standalone="no"?>
<!-- Generator: Adobe Illustrator 15.0.2, SVG Export Plug-In . SVG Version: 6.00 Build 0)  -->
<svg xmlns:rdf="http://www.w3.org/1999/02/22-rdf-syntax-ns#" xmlns="http://www.w3.org/2000/svg" enable-background="new 0 0 28.347 28.347" xml:space="preserve" viewBox="0 0 25 25" version="1.1" y="0px" x="0px" xmlns:cc="http://creativecommons.org/ns#" xmlns:dc="http://purl.org/dc/elements/1.1/"><metadata><rdf:RDF><cc:Work rdf:about=""><dc:format>image/svg+xml</dc:format><dc:type rdf:resource="http://purl.org/dc/dcmitype/StillImage"/><dc:title/></cc:Work></rdf:RDF></metadata>
<g transform="matrix(1.302577,0,0,1.3023408,-6.261668,-5.264999)">
	<path d="m23.616,21.011c0,1.018-0.824,1.844-1.844,1.844h-14.738c-1.018,0-1.843-0.826-1.843-1.844v-14.74c0-1.018,0.825-1.844,1.843-1.844h14.738c1.02,0,1.844,0.826,1.844,1.844v14.74z" stroke="#FFF" stroke-width="0.76777852" fill="#39870c"/>
		<line stroke-width="1.1517" y2="10.394" x2="7.177" stroke="#FFF" stroke-linecap="round" y1="16.233" x1="21.632" fill="none"/>
		<circle d="m 15.946,14.758 c 0,1.174158 -0.951843,2.126 -2.126,2.126 -1.174158,0 -2.126,-0.951842 -2.126,-2.126 0,-1.174157 0.951842,-2.126 2.126,-2.126 1.174157,0 2.126,0.951843 2.126,2.126 z" cy="14.758" cx="13.82" r="2.126" fill="#FFF"/>
</g>
</svg>
