<?xml version="1.0" encoding="UTF-8" standalone="no"?>
<svg xmlns:rdf="http://www.w3.org/1999/02/22-rdf-syntax-ns#" xmlns="http://www.w3.org/2000/svg" xmlns:cc="http://creativecommons.org/ns#" xmlns:dc="http://purl.org/dc/elements/1.1/" version="1.1" xml:space="preserve" height="25" width="25" enable-background="new 0 0 28.347 28.347" y="0px" x="0px" viewBox="0 0 25 25">
  <metadata>
    <rdf:RDF>
      <cc:Work rdf:about="">
        <dc:format>image/svg+xml</dc:format>
        <dc:type rdf:resource="http://purl.org/dc/dcmitype/StillImage"/>
        <dc:title/>
      </cc:Work>
    </rdf:RDF>
  </metadata>
  <g stroke="#FFF" transform="translate(0,-0.11248806)">
    <path stroke-width="1.28696811" d="m24.581,22.096c0,1.31-1.0605,2.373-2.3734,2.373h-18.969c-1.3102,0-2.3708-1.063-2.3708-2.373v-18.967c0-1.31,1.0605-2.373,2.3708-2.373h18.969c1.3128,0,2.3734,1.063,2.3734,2.373v18.967z" fill="#e17000"/>
    <line stroke-width="1.9305" x1="12.726" y1="16.754" stroke-linecap="round" x2="12.726" y2="16.754" fill="none"/>
    <path d="M12.726,13.578v-6.2784s0.82115-2.5737,3.3631-2.5737c2.9126,0,3.2769,2.5737,3.2769,2.5737v2.1298" stroke-linecap="round" stroke-dasharray="0, 3.17597999" stroke-width="1.93045223" fill="none"/>
    <line stroke-width="1.9305" x1="19.366" y1="11.019" stroke-linecap="round" x2="19.366" y2="11.019" fill="none"/>
    <line stroke-width="1.9305" x1="12.707" y1="16.754" stroke-linecap="round" x2="12.707" y2="16.754" fill="none"/>
    <path d="M12.707,13.578v-6.2784s-0.82115-2.5737-3.3631-2.5737c-2.9126,0-3.2769,2.5737-3.2769,2.5737v2.1298" stroke-linecap="round" stroke-dasharray="0, 3.17597999" stroke-width="1.93045223" fill="none"/>
    <line stroke-width="1.9305" x1="6.0669" y1="11.019" stroke-linecap="round" x2="6.0669" y2="11.019" fill="none"/>
  </g>
</svg>
