<?xml version="1.0" encoding="UTF-8" standalone="no"?>
<svg xmlns:rdf="http://www.w3.org/1999/02/22-rdf-syntax-ns#" xmlns="http://www.w3.org/2000/svg" xmlns:cc="http://creativecommons.org/ns#" xmlns:dc="http://purl.org/dc/elements/1.1/" version="1.1" xml:space="preserve" height="25" width="25" enable-background="new 0 0 28.347 28.347" y="0px" x="0px" viewBox="0 0 25 25">
  <metadata>
    <rdf:RDF>
      <cc:Work rdf:about="">
        <dc:format>image/svg+xml</dc:format>
        <dc:type rdf:resource="http://purl.org/dc/dcmitype/StillImage"/>
        <dc:title/>
      </cc:Work>
    </rdf:RDF>
  </metadata>
  <g transform="matrix(1.302578,0,0,1.3023408,-5.7614925,-5.9161694)">
    <path stroke="#FFF" stroke-width="0.76777822" d="m23.232,21.511c0,1.018-0.824,1.844-1.844,1.844h-14.738c-1.018,0-1.843-0.826-1.843-1.844v-14.74c0-1.018,0.825-1.844,1.843-1.844h14.738c1.02,0,1.844,0.826,1.844,1.844v14.74z" fill="#e17000"/>
    <rect height="12.756" width="8.504" stroke="#FFF" y="8.472" x="9.768" stroke-width="0.76778" fill="none"/>
    <rect stroke-linejoin="round" height="1.417" width="8.504" stroke="#FFF" y="7.055" x="9.768" stroke-width="0.76778" fill="#FFF"/>
    <path d="m13.898,10.611c-0.398,0.043-1.848,0.707-1.891,4.123-0.045,3.6,1.492,4.357,1.895,4.35v-2.377c-0.332,0-0.398-0.361-0.475-1.107-0.049-0.494-0.064-1.104,0-1.711,0.047-0.426,0.125-0.842,0.473-0.842l-0.002-2.436z" fill="#FFF"/>
    <path d="m14.998,19.088c0.154,0,0.264-0.125,0.264-0.266l0.002-0.002s-0.002-1.852-0.002-1.854c0-0.146-0.119-0.262-0.264-0.262h-0.674v2.383s0.672,0.002,0.672,0h0.002z" fill="#FFF"/>
    <path d="m14.998,13.047c0.154,0,0.264-0.125,0.264-0.266h0.002s-0.002-1.906-0.002-1.908c0-0.146-0.119-0.262-0.264-0.262h-0.674v2.436l0.672,0.002,0.002-0.002z" fill="#FFF"/>
  </g>
</svg>
