<?xml version="1.0" encoding="UTF-8" standalone="no"?>
<!-- Generator: Adobe Illustrator 15.0.2, SVG Export Plug-In . SVG Version: 6.00 Build 0)  -->
<svg xmlns:rdf="http://www.w3.org/1999/02/22-rdf-syntax-ns#" xmlns="http://www.w3.org/2000/svg" version="1.1" xml:space="preserve" height="100%" width="100%" enable-background="new 0 0 28.347 28.347" y="0px" x="0px" xmlns:cc="http://creativecommons.org/ns#" xmlns:dc="http://purl.org/dc/elements/1.1/" viewBox="0 0 25 25"><metadata><rdf:RDF><cc:Work rdf:about=""><dc:format>image/svg+xml</dc:format><dc:type rdf:resource="http://purl.org/dc/dcmitype/StillImage"/><dc:title/></cc:Work></rdf:RDF></metadata>
<g transform="matrix(1.2870047,0,0,1.2868654,-6.0373739,-1.1053862)"><g transform="translate(0,-3.3470001)">
	<path stroke="#FFF" d="m23.616,21.289c0,1.018-0.824,1.844-1.844,1.844h-14.738c-1.018,0-1.843-0.826-1.843-1.844v-14.739c0-1.018,0.825-1.844,1.843-1.844h14.738c1.02,0,1.844,0.826,1.844,1.844v14.739z" fill="#535353"/>
		<path d="m6.987,10.889c-0.113-0.208,0-0.51,0.208-0.68,0.207-0.17,0.717-0.623,1.038-0.867,0.32-0.246,0.698-0.698,0.905-1.057,0.208-0.358,1.019-0.755,1.452-0.68,0.434,0.076,0.887,0.68,1.113,0.981s0.415,0.717,0.773,1.169c0.358,0.453,0.566,0.303,0.566,0.303l5.885-2.773,0.273,0.51-5.819,2.772,0.151,0.151,0.132,0.15c0.132,0.15,1.754,0.207,1.754,0.207l0.528,0.095c0.528,0.095,1.641,0.604,2.357,1.434s0.66,2.169,0.642,2.679,0.188,0.51,0.51,0.396c0.32-0.113,1.037-1.133,1.226-1.434,0.189-0.303,0.434-0.151,0.434,0.244,0,0.396-0.414,1.359-0.942,1.943-0.528,0.586-1.038,0.585-1.038,0.585l-0.471-0.113c-0.473-0.112-0.755,0.283-0.755,0.283l-0.396,0.188c-0.396,0.188-1,0.076-1.095,0.32-0.095,0.246,0.604,0.473,0.942,0.736,0.34,0.264,0.529,0.434,0.473,0.66s-1.113,1.887-1.113,1.887h-1.094l-0.02-0.321s0.453-0.735,0.604-0.942c0.151-0.208,0.076-0.359-0.037-0.491s-1.113-0.679-1.113-0.679l-0.207-0.095c-0.207-0.095-0.246,0.151-0.246,0.151l-0.187,2.379h-0.925s0.151-3.113,0.188-3.357c0.038-0.246-0.302-0.152-0.396,0-0.094,0.15-0.49,3.357-0.49,3.357h-1.113s0.547-3.924,0.604-4.735-0.094-1.812-0.471-2.452-0.74-0.858-0.854-1.047,0.078-0.347,0.078-0.347l1.817-1.669-0.262-0.312s-1.74,1.667-1.91,1.761c-0.17,0.095-0.304,0.029-0.644-0.48s-0.867-0.396-1.339-0.075c-0.471,0.32-1.019,0.056-1.019,0.056l-0.415-0.434c0.001,0-0.168-0.15-0.282-0.357zm2.115-1.694c-0.088,0-0.16,0.072-0.16,0.16,0,0.089,0.072,0.16,0.16,0.16,0.09,0,0.161-0.071,0.161-0.16,0-0.087-0.072-0.16-0.161-0.16zm0.927,0.891c0.133,0.164,0.361,0.404,0.509,0.723,0.165,0.354,0.484-0.058,0.617-0.168,0.146-0.123,0.323-0.082,0.554-0.318,0.317-0.326-0.324-0.597-0.536-0.823s-0.293-0.358-0.505-0.627c-0.213-0.269-0.393-0.191-0.611-0.06-0.168,0.104-0.334,0.316-0.295,0.6,0-0.001,0.009,0.357,0.267,0.673z" fill="#FFF"/>
		<path d="m19.371,20.271c0.001-0.01,0.013-0.016,0.013-0.025,0-0.13-0.13-0.234-0.289-0.234s-0.289,0.104-0.289,0.234c0,0.026,0.024,0.045,0.035,0.068-0.255,0.062-0.434,0.174-0.434,0.307,0,0.198,0.381,0.359,0.852,0.359s0.852-0.161,0.852-0.359c-0.001-0.182-0.325-0.326-0.74-0.35z" fill="#FFF"/>
</g></g>
</svg>
