<?xml version="1.0" encoding="UTF-8" standalone="no"?>
<svg xmlns:rdf="http://www.w3.org/1999/02/22-rdf-syntax-ns#" xmlns="http://www.w3.org/2000/svg" xmlns:cc="http://creativecommons.org/ns#" xmlns:dc="http://purl.org/dc/elements/1.1/" version="1.1" xml:space="preserve" height="25" width="25" enable-background="new 0 0 28.347 28.347" y="0px" x="0px" viewBox="0 0 25 25">
  <metadata>
    <rdf:RDF>
      <cc:Work rdf:about="">
        <dc:format>image/svg+xml</dc:format>
        <dc:type rdf:resource="http://purl.org/dc/dcmitype/StillImage"/>
        <dc:title/>
      </cc:Work>
    </rdf:RDF>
  </metadata>
  <g transform="matrix(1.2870675,0,0,1.2868688,-5.5434494,-1.1196257)">
    <path stroke="#FFF" d="m23.231,17.953c0,1.018-0.824,1.844-1.844,1.844h-14.738c-1.018,0-1.842-0.826-1.842-1.844v-14.739c0-1.018,0.824-1.844,1.842-1.844h14.738c1.02,0,1.844,0.826,1.844,1.844v14.739z" fill="#e17000"/>
    <g transform="translate(0,-3.3470001)" fill="#FFF">
      <path d="M10.221,19.6,9.74,16.829h-1.91l1.85-3.438-0.262-1.474s-0.544,1.513-0.826,2.259c-0.197,0.53-0.842,0.315-0.662-0.216,0.322-0.905,0.544-1.553,0.886-2.534,0.32-0.905,0.645-1.042,1.124-1.042h1.207c0.483,0,0.805,0.137,1.127,1.042,0.342,0.981,0.563,1.629,0.883,2.534,0.183,0.531-0.46,0.746-0.661,0.216-0.283-0.746-0.826-2.259-0.826-2.259l-0.261,1.474,1.851,3.438h-1.911l-0.485,2.771h-0.643z"/>
      <path d="m10.543,8.261c0.503,0,0.903,0.394,0.903,0.885,0,0.473-0.4,0.885-0.884,0.885-0.503,0-0.925-0.394-0.925-0.885s0.404-0.885,0.906-0.885z"/>
      <path d="m16.811,19.6h-1.186l1.126-6.053-0.262-1.474s-0.544,1.356-0.824,2.103c-0.201,0.53-0.845,0.315-0.664-0.216,0.322-0.905,0.544-1.553,0.886-2.534,0.32-0.905,0.642-1.042,1.124-1.042h1.208c0.482,0,0.802,0.137,1.126,1.042,0.342,0.981,0.563,1.629,0.883,2.534,0.183,0.531-0.461,0.746-0.663,0.216-0.281-0.746-0.824-2.103-0.824-2.103l-0.261,1.474,1.147,6.053h-1.208l-0.803-4.048-0.805,4.048z"/>
      <path d="m17.616,8.261c0.502,0,0.902,0.394,0.902,0.885,0,0.473-0.4,0.885-0.884,0.885-0.502,0-0.926-0.394-0.926-0.885s0.404-0.885,0.908-0.885z"/>
    </g>
  </g>
</svg>
