<?xml version="1.0" encoding="UTF-8" standalone="no"?>
<!-- Generator: Adobe Illustrator 15.0.2, SVG Export Plug-In . SVG Version: 6.00 Build 0)  -->

<svg
   xmlns:dc="http://purl.org/dc/elements/1.1/"
   xmlns:cc="http://creativecommons.org/ns#"
   xmlns:rdf="http://www.w3.org/1999/02/22-rdf-syntax-ns#"
   xmlns:svg="http://www.w3.org/2000/svg"
   xmlns="http://www.w3.org/2000/svg"
   xmlns:sodipodi="http://sodipodi.sourceforge.net/DTD/sodipodi-0.dtd"
   xmlns:inkscape="http://www.inkscape.org/namespaces/inkscape"
   enable-background="new 0 0 28.347 28.347"
   xml:space="preserve"
   viewBox="0 0 25 25"
   version="1.1"
   y="0px"
   x="0px"
   id="svg2"
   inkscape:version="0.48.0 r9654"
   width="100%"
   height="100%"
   sodipodi:docname="boorgat.svg"
   inkscape:export-filename="/media/Storage/projecten/2011/19_bgt_imgeo_vis_revisie/03_ontwerp/grafisch/boorgat.png"
   inkscape:export-xdpi="300"
   inkscape:export-ydpi="300"><defs
   id="defs22">
	
		
		
		
		
		
</defs><sodipodi:namedview
   pagecolor="#ffffff"
   bordercolor="#666666"
   borderopacity="1"
   objecttolerance="10"
   gridtolerance="10"
   guidetolerance="10"
   inkscape:pageopacity="0"
   inkscape:pageshadow="2"
   inkscape:window-width="739"
   inkscape:window-height="480"
   id="namedview20"
   showgrid="false"
   inkscape:zoom="9.4870588"
   inkscape:cx="12.5"
   inkscape:cy="12.5"
   inkscape:window-x="0"
   inkscape:window-y="24"
   inkscape:window-maximized="0"
   inkscape:current-layer="svg2" /><metadata
   id="metadata4"><rdf:RDF><cc:Work
       rdf:about=""><dc:format>image/svg+xml</dc:format><dc:type
         rdf:resource="http://purl.org/dc/dcmitype/StillImage" /><dc:title></dc:title></cc:Work></rdf:RDF></metadata>
<path
   style="fill:#673327;stroke:#ffffff;stroke-width:1;fill-opacity:1"
   inkscape:connector-curvature="0"
   id="path8"
   d="m 24.499535,22.098484 c 0,1.325782 -1.073303,2.401516 -2.401907,2.401516 H 2.9006048 C 1.574606,24.5 0.49999996,23.424266 0.49999996,22.098484 V 2.9019802 c 0,-1.325783 1.07460604,-2.40151648 2.40060484,-2.40151648 H 22.097628 c 1.328604,0 2.401907,1.07573348 2.401907,2.40151648 V 22.098484 z" /><circle
   style="fill:none;stroke:#ffffff;stroke-width:0.76778567"
   sodipodi:ry="4.2519999"
   sodipodi:rx="4.2519999"
   sodipodi:cy="13.774"
   sodipodi:cx="14.215"
   id="circle10"
   r="4.2519999"
   cx="14.215"
   cy="13.774"
   d="m 18.467,13.774 c 0,2.348315 -1.903685,4.252 -4.252,4.252 -2.348315,0 -4.2519997,-1.903685 -4.2519997,-4.252 0,-2.348315 1.9036847,-4.2519997 4.2519997,-4.2519997 2.348315,0 4.252,1.9036847 4.252,4.2519997 z"
   transform="matrix(1.3025528,0,0,1.3023408,-6.0166717,-5.264999)" /><line
   style="fill:none;stroke:#ffffff;stroke-width:1"
   id="line12"
   x1="22.143217"
   y1="12.666931"
   x2="15.248806"
   y2="12.666931" /><line
   style="fill:none;stroke:#ffffff;stroke-width:1"
   id="line14"
   x1="9.8940105"
   y1="12.673444"
   x2="3.0009012"
   y2="12.673444" /><line
   style="fill:none;stroke:#ffffff;stroke-width:1"
   id="line16"
   x1="12.569454"
   y1="3.0999358"
   x2="12.569454"
   y2="9.9932251" /><line
   style="fill:none;stroke:#ffffff;stroke-width:1"
   id="line18"
   x1="12.575967"
   y1="15.347148"
   x2="12.575967"
   y2="22.239136" />
</svg>