<?xml version="1.0" encoding="UTF-8" standalone="no"?>
<!-- Generator: Adobe Illustrator 15.0.2, SVG Export Plug-In . SVG Version: 6.00 Build 0)  -->
<svg xmlns:rdf="http://www.w3.org/1999/02/22-rdf-syntax-ns#" xmlns="http://www.w3.org/2000/svg" version="1.1" xml:space="preserve" height="100%" width="100%" enable-background="new 0 0 28.347 28.347" y="0px" x="0px" xmlns:cc="http://creativecommons.org/ns#" xmlns:dc="http://purl.org/dc/elements/1.1/" viewBox="0 0 25 25"><metadata><rdf:RDF><cc:Work rdf:about=""><dc:format>image/svg+xml</dc:format><dc:type rdf:resource="http://purl.org/dc/dcmitype/StillImage"/><dc:title/></cc:Work></rdf:RDF></metadata>
<g transform="translate(0,-3.3470001)">
</g>
<g transform="matrix(1.3025528,0,0,1.3023408,-6.2615516,-5.3861167)">
		<path d="m23.616,21.104c0,1.018-0.824,1.844-1.844,1.844h-14.738c-1.018,0-1.843-0.826-1.843-1.844v-14.74c0-1.018,0.825-1.844,1.843-1.844h14.738c1.02,0,1.844,0.826,1.844,1.844v14.74z" stroke="#FFF" stroke-width="0.76778567" fill="#535353"/>
			<polygon points="21.099,14.52,21.099,11.685,18.974,11.685,18.974,9.364,16.14,9.364,16.14,11.685,14.013,11.685,14.013,14.52,16.14,14.52,16.14,20.703,18.974,20.703,18.974,14.52" fill="#FFF"/>
			<polygon points="12.343,10.366,12.343,8.382,10.855,8.382,10.855,6.757,8.872,6.757,8.872,8.382,7.383,8.382,7.383,10.366,8.872,10.366,8.872,14.694,10.855,14.694,10.855,10.366" fill="#FFF"/>
</g>
</svg>
