<?xml version="1.0" encoding="UTF-8" standalone="no"?>
<svg xmlns="http://www.w3.org/2000/svg" height="32" width="32" version="1.1">
    <rect height="32" width="32" y="0" x="0" fill="#c9eb70"/>
    <path d="m24.386 18.295 0.312 0.384 0.384 1.056 0.192 0.648v0.84l-0.744 0.192-0.312-0.888-0.264 0.408-0.432 1.2-0.264 1.56v4.752h-1.104v-4.416l0.168-1.152 0.312-1.176c0.064-0.20799 0.18399-0.62399 0.36-1.248 0.048-0.17599 0.17599-0.48799 0.384-0.936 0.25599-0.57599 0.59199-0.98399 1.008-1.224m-6.072 5.376 0.984-0.36 1.92 5.112-1.08 0.024-1.824-4.776m-1.848 3.48 0.888-0.552 1.392 1.824-1.104 0.024-1.176-1.296m8.28-2.448 1.08 0.264-0.648 3.504h-1.056l0.624-3.768m1.896 1.8 0.984 0.432-0.624 1.488-1.08 0.024 0.72-1.944"/>
</svg>
