<?xml version="1.0" encoding="UTF-8" standalone="no"?>
<svg xmlns:rdf="http://www.w3.org/1999/02/22-rdf-syntax-ns#" xmlns="http://www.w3.org/2000/svg" xmlns:cc="http://creativecommons.org/ns#" xmlns:dc="http://purl.org/dc/elements/1.1/" height="25" width="25" version="1.1">
  <metadata>
    <rdf:RDF>
      <cc:Work rdf:about="">
        <dc:format>image/svg+xml</dc:format>
        <dc:type rdf:resource="http://purl.org/dc/dcmitype/StillImage"/>
        <dc:title/>
      </cc:Work>
    </rdf:RDF>
  </metadata>
  <g transform="translate(0,-1027.3622)">
    <g transform="translate(-517.28648,249.01374)">
      <path d="m541.79,800.45c0,1.3258-1.0733,2.4016-2.402,2.4016h-19.197c-1.326,0-2.4006-1.0758-2.4006-2.4016v-19.197c0-1.3258,1.0746-2.4016,2.4006-2.4016h19.197c1.3286,0,2.402,1.0758,2.402,2.4016v19.197z" stroke="#FFF" stroke-width="1" fill="#535353"/>
      <g transform="matrix(0.90591433,0,0,0.84660656,60.082015,129.67915)">
        <path d="m528.41,786.11c0.0534-0.24615,0.0834-0.50143,0.0834-0.76191,0-1.9875-1.61-3.6012-3.6003-3.6012-1.9877,0-3.6002,1.6124-3.6002,3.6012,0,0.23964,0.0273,0.47147,0.0703,0.69809-0.82451,0.44934-1.3911,1.3128-1.3911,2.317,0,1.4626,1.1853,2.6478,2.6481,2.6478,0.63434,0,1.2127-0.22923,1.6673-0.60302v2.4147h1.2114v-2.6869c0.45589,0.46365,1.0837,0.758,1.7871,0.758,1.3976,0,2.5296-1.1318,2.5296-2.5293,0.001-0.99114-0.57443-1.839-1.4055-2.2545z" stroke="#535353" stroke-width="2.28373456" fill="none"/>
        <path fill="#FFF" d="m528.41,786.11c0.0534-0.24615,0.0834-0.50143,0.0834-0.76191,0-1.9875-1.61-3.6012-3.6003-3.6012-1.9877,0-3.6002,1.6124-3.6002,3.6012,0,0.23964,0.0273,0.47147,0.0703,0.69809-0.82451,0.44934-1.3911,1.3128-1.3911,2.317,0,1.4626,1.1853,2.6478,2.6481,2.6478,0.63434,0,1.2127-0.22923,1.6673-0.60302v2.4147h1.2114v-2.6869c0.45589,0.46365,1.0837,0.758,1.7871,0.758,1.3976,0,2.5296-1.1318,2.5296-2.5293,0.001-0.99114-0.57443-1.839-1.4055-2.2545z"/>
        <path fill="#FFF" d="m528.41,786.11c0.0534-0.24615,0.0834-0.50143,0.0834-0.76191,0-1.9875-1.61-3.6012-3.6003-3.6012-1.9877,0-3.6002,1.6124-3.6002,3.6012,0,0.23964,0.0273,0.47147,0.0703,0.69809-0.82451,0.44934-1.3911,1.3128-1.3911,2.317,0,1.4626,1.1853,2.6478,2.6481,2.6478,0.63434,0,1.2127-0.22923,1.6673-0.60302v2.4147h1.2114v-2.6869c0.45589,0.46365,1.0837,0.758,1.7871,0.758,1.3976,0,2.5296-1.1318,2.5296-2.5293,0.001-0.99114-0.57443-1.839-1.4055-2.2545z"/>
      </g>
      <path d="m521.18,781.78,4.9922,0c1.4844,0.00001,2.6224,0.33074,3.4141,0.99218,0.79686,0.65626,1.1953,1.5938,1.1953,2.8125-0.00001,1.224-0.39845,2.1667-1.1953,2.8281-0.79168,0.65625-1.9297,0.98438-3.4141,0.98437h-1.9844v4.0469h-3.0078v-11.664m3.0078,2.1797,0,3.2578,1.6641,0c0.58333,0,1.0338-0.14062,1.3516-0.42188,0.3177-0.28645,0.47656-0.6901,0.47657-1.2109-0.00001-0.52082-0.15887-0.92186-0.47657-1.2031-0.31771-0.28124-0.76823-0.42187-1.3516-0.42188h-1.6641" fill="#FFF"/>
      <path fill="#FFF" d="m525.37,797.4h2.4959l-0.82295-2.1421h-0.84944l-0.82349,2.1421zm-1.3952-2.1421v-0.79093h5.4678v0.79149h-1.3806l0.82134,2.1421h2.0371v0.79149h-1.7297l0.96238,2.4938h-0.93428l-0.96345-2.4938h-3.1103l-0.95427,2.4927h-0.9348l0.95534-2.4938h-1.7162v-0.7915h2.0231l0.82296-2.1421h-1.3666z"/>
    </g>
  </g>
</svg>
