<?xml version="1.0" encoding="UTF-8" standalone="no"?>
<!-- Created with Inkscape (http://www.inkscape.org/) -->
<svg xmlns:rdf="http://www.w3.org/1999/02/22-rdf-syntax-ns#" xmlns="http://www.w3.org/2000/svg" height="32" width="32" version="1.1" xmlns:cc="http://creativecommons.org/ns#" xmlns:dc="http://purl.org/dc/elements/1.1/">
 <metadata>
  <rdf:RDF>
   <cc:Work rdf:about="">
    <dc:format>image/svg+xml</dc:format>
    <dc:type rdf:resource="http://purl.org/dc/dcmitype/StillImage"/>
    <dc:title/>
   </cc:Work>
  </rdf:RDF>
 </metadata>
 <g transform="translate(-0.00541,-1020.3528)">
  <rect stroke-dasharray="none" height="31.478" width="31.478" stroke="#FFC" stroke-miterlimit="4" y="1020.6" x="0.25666" stroke-width="0.5219" fill="#FFC"/>
  <path d="m8.2625,1030.3c0-0.4833,0.16667-0.8917,0.5-1.225s0.74167-0.5,1.225-0.5c0.5,0,0.91666,0.1667,1.25,0.5,0.33333,0.3333,0.5,0.7417,0.5,1.225-0.000004,0.5-0.16667,0.9167-0.5,1.25-0.33334,0.3333-0.75,0.5-1.25,0.5-0.48333,0-0.89167-0.1667-1.225-0.5s-0.5-0.75-0.5-1.25m0.9,0.025c-9E-7,0.55,0.275,0.825,0.825,0.825,0.56666,0,0.85-0.275,0.85-0.825-0.000003-0.5667-0.28334-0.85-0.85-0.85-0.55,0-0.825,0.2833-0.825,0.85"/>
  <path d="m20.263,1042.3c0-0.4833,0.16667-0.8917,0.5-1.225s0.74166-0.5,1.225-0.5c0.5,0,0.91666,0.1667,1.25,0.5,0.33333,0.3333,0.5,0.7417,0.5,1.225-0.000004,0.5-0.16667,0.9167-0.5,1.25-0.33334,0.3333-0.75,0.5-1.25,0.5-0.48334,0-0.89167-0.1667-1.225-0.5s-0.5-0.75-0.5-1.25m0.9,0.025c-0.000001,0.55,0.275,0.825,0.825,0.825,0.56666,0,0.85-0.275,0.85-0.825-0.000003-0.5667-0.28334-0.85-0.85-0.85-0.55,0-0.825,0.2833-0.825,0.85"/>
 </g>
</svg>
