<?xml version="1.0" encoding="UTF-8" standalone="no"?>
<svg xmlns:rdf="http://www.w3.org/1999/02/22-rdf-syntax-ns#" xmlns="http://www.w3.org/2000/svg" xmlns:cc="http://creativecommons.org/ns#" xmlns:dc="http://purl.org/dc/elements/1.1/" version="1.1" xml:space="preserve" height="25" width="25" enable-background="new 0 0 28.347 28.347" y="0px" x="0px" viewBox="0 0 25 25">
  <metadata>
    <rdf:RDF>
      <cc:Work rdf:about="">
        <dc:format>image/svg+xml</dc:format>
        <dc:type rdf:resource="http://purl.org/dc/dcmitype/StillImage"/>
        <dc:title/>
      </cc:Work>
    </rdf:RDF>
  </metadata>
  <g transform="matrix(1.3025528,0,0,1.3024114,-5.8694832,-5.5036514)">
    <path stroke="#FFF" stroke-width="0.76776487" d="m23.315,21.193c0,1.018-0.824,1.844-1.844,1.844h-14.738c-1.018,0-1.843-0.826-1.843-1.844v-14.739c0-1.018,0.825-1.844,1.843-1.844h14.738c1.02,0,1.844,0.826,1.844,1.844v14.739z" fill="#42145f"/>
    <path d="M16.229,8.196c-2.571-0.936-3.015-0.033-3.015-0.033l-1.133,3.113-0.008,0.024-2.416,6.636,0.939,0.342,2.416-6.635,1.254,0.456-2.415,6.636,0.939,0.342,2.415-6.636,1.255,0.457-2.415,6.635,0.939,0.343,2.415-6.636,0.009-0.023,1.133-3.113c0.001-0.001,0.261-0.971-2.312-1.908z" fill="#FFF"/>
  </g>
</svg>
