<?xml version="1.0" encoding="UTF-8" standalone="no"?>
<!-- Created with Inkscape (http://www.inkscape.org/) -->

<svg
   xmlns:dc="http://purl.org/dc/elements/1.1/"
   xmlns:cc="http://creativecommons.org/ns#"
   xmlns:rdf="http://www.w3.org/1999/02/22-rdf-syntax-ns#"
   xmlns:svg="http://www.w3.org/2000/svg"
   xmlns="http://www.w3.org/2000/svg"
   xmlns:sodipodi="http://sodipodi.sourceforge.net/DTD/sodipodi-0.dtd"
   xmlns:inkscape="http://www.inkscape.org/namespaces/inkscape"
   width="25"
   height="25"
   id="svg4396"
   version="1.1"
   inkscape:version="0.48.3.1 r9886"
   sodipodi:docname="New document 11">
  <defs
     id="defs3" />
  <sodipodi:namedview
     inkscape:document-units="mm"
     id="base"
     pagecolor="#ffffff"
     bordercolor="#666666"
     borderopacity="1.0"
     inkscape:pageopacity="0.0"
     inkscape:pageshadow="2"
     inkscape:zoom="20.880426"
     inkscape:cx="12.49977"
     inkscape:cy="12.499762"
     inkscape:current-layer="layer1"
     showgrid="false"
     units="px"
     inkscape:window-width="1366"
     inkscape:window-height="692"
     inkscape:window-x="0"
     inkscape:window-y="24"
     inkscape:window-maximized="1" />
  <metadata
     id="metadata4">
    <rdf:RDF>
      <cc:Work
         rdf:about="">
        <dc:format>image/svg+xml</dc:format>
        <dc:type
           rdf:resource="http://purl.org/dc/dcmitype/StillImage" />
        <dc:title></dc:title>
      </cc:Work>
    </rdf:RDF>
  </metadata>
  <g
     inkscape:label="Layer 1"
     inkscape:groupmode="layer"
     id="layer1"
     transform="translate(0,-1027.3622)">
    <g
       transform="translate(-513.4338,39.387083)"
       id="g4367">
      <path
         inkscape:export-ydpi="90"
         inkscape:export-xdpi="90"
         inkscape:export-filename="/media/Storage/projecten/2011/07_BGT_IMGeo_Visualisatie/05_GrafischOntwerp/vuilvang.png"
         id="path4161"
         d="m 537.93334,1010.0736 c 0,1.3258 -1.07336,2.4015 -2.40204,2.4015 h -19.19807 c -1.32607,0 -2.39943,-1.0757 -2.39943,-2.4015 v -19.19647 c 0,-1.32579 1.07336,-2.40152 2.39943,-2.40152 h 19.19807 c 1.32868,0 2.40204,1.07573 2.40204,2.40152 v 19.19647 z"
         inkscape:connector-curvature="0"
         style="color:#000000;fill:#d52b1e;fill-opacity:1;fill-rule:nonzero;stroke:#ffffff;stroke-width:0.99999994;stroke-linecap:butt;stroke-linejoin:miter;stroke-miterlimit:4;stroke-opacity:1;stroke-dasharray:none;stroke-dashoffset:0;marker:none;visibility:visible;display:inline;overflow:visible;enable-background:accumulate" />
      <path
         sodipodi:nodetypes="ccc"
         inkscape:connector-curvature="0"
         id="rect4138"
         d="m 535.12918,1002.8219 0,4.7113 -19.40138,0"
         style="fill:none;stroke:#ffffff;stroke-width:1.93045223;stroke-linejoin:round" />
      <path
         transform="matrix(0.7457143,0,0,0.87000001,132.2143,131.53004)"
         d="m 517.33715,1002.8411 c 0,0.6348 -0.60038,1.1495 -1.341,1.1495 -0.74061,0 -1.34099,-0.5147 -1.34099,-1.1495 0,-0.6348 0.60038,-1.1494 1.34099,-1.1494 0.74062,0 1.341,0.5146 1.341,1.1494 z"
         sodipodi:ry="1.1494253"
         sodipodi:rx="1.3409961"
         sodipodi:cy="1002.8411"
         sodipodi:cx="515.99615"
         id="path4331"
         style="color:#000000;fill:#ffffff;fill-opacity:1;fill-rule:nonzero;stroke:none;stroke-width:4.48633337;marker:none;visibility:visible;display:inline;overflow:visible;enable-background:accumulate"
         sodipodi:type="arc" />
      <path
         sodipodi:type="arc"
         style="color:#000000;fill:#ffffff;fill-opacity:1;fill-rule:nonzero;stroke:none;stroke-width:4.48633337;marker:none;visibility:visible;display:inline;overflow:visible;enable-background:accumulate"
         id="path4333"
         sodipodi:cx="515.99615"
         sodipodi:cy="1002.8411"
         sodipodi:rx="1.3409961"
         sodipodi:ry="1.1494253"
         d="m 517.33715,1002.8411 c 0,0.6348 -0.60038,1.1495 -1.341,1.1495 -0.74061,0 -1.34099,-0.5147 -1.34099,-1.1495 0,-0.6348 0.60038,-1.1494 1.34099,-1.1494 0.74062,0 1.341,0.5146 1.341,1.1494 z"
         transform="matrix(0.7457143,0,0,0.87000001,135.2143,131.43425)" />
      <path
         transform="matrix(0.7457143,0,0,0.87000001,138.2143,131.43425)"
         d="m 517.33715,1002.8411 c 0,0.6348 -0.60038,1.1495 -1.341,1.1495 -0.74061,0 -1.34099,-0.5147 -1.34099,-1.1495 0,-0.6348 0.60038,-1.1494 1.34099,-1.1494 0.74062,0 1.341,0.5146 1.341,1.1494 z"
         sodipodi:ry="1.1494253"
         sodipodi:rx="1.3409961"
         sodipodi:cy="1002.8411"
         sodipodi:cx="515.99615"
         id="path4335"
         style="color:#000000;fill:#ffffff;fill-opacity:1;fill-rule:nonzero;stroke:none;stroke-width:4.48633337;marker:none;visibility:visible;display:inline;overflow:visible;enable-background:accumulate"
         sodipodi:type="arc" />
      <path
         sodipodi:type="arc"
         style="color:#000000;fill:#ffffff;fill-opacity:1;fill-rule:nonzero;stroke:none;stroke-width:4.48633337;marker:none;visibility:visible;display:inline;overflow:visible;enable-background:accumulate"
         id="path4337"
         sodipodi:cx="515.99615"
         sodipodi:cy="1002.8411"
         sodipodi:rx="1.3409961"
         sodipodi:ry="1.1494253"
         d="m 517.33715,1002.8411 c 0,0.6348 -0.60038,1.1495 -1.341,1.1495 -0.74061,0 -1.34099,-0.5147 -1.34099,-1.1495 0,-0.6348 0.60038,-1.1494 1.34099,-1.1494 0.74062,0 1.341,0.5146 1.341,1.1494 z"
         transform="matrix(0.7457143,0,0,0.87000001,141.2143,131.43425)" />
      <path
         transform="matrix(0.7457143,0,0,0.87000001,144.2143,131.43425)"
         d="m 517.33715,1002.8411 c 0,0.6348 -0.60038,1.1495 -1.341,1.1495 -0.74061,0 -1.34099,-0.5147 -1.34099,-1.1495 0,-0.6348 0.60038,-1.1494 1.34099,-1.1494 0.74062,0 1.341,0.5146 1.341,1.1494 z"
         sodipodi:ry="1.1494253"
         sodipodi:rx="1.3409961"
         sodipodi:cy="1002.8411"
         sodipodi:cx="515.99615"
         id="path4339"
         style="color:#000000;fill:#ffffff;fill-opacity:1;fill-rule:nonzero;stroke:none;stroke-width:4.48633337;marker:none;visibility:visible;display:inline;overflow:visible;enable-background:accumulate"
         sodipodi:type="arc" />
      <path
         sodipodi:type="arc"
         style="color:#000000;fill:#ffffff;fill-opacity:1;fill-rule:nonzero;stroke:none;stroke-width:4.48633337;marker:none;visibility:visible;display:inline;overflow:visible;enable-background:accumulate"
         id="path4341"
         sodipodi:cx="515.99615"
         sodipodi:cy="1002.8411"
         sodipodi:rx="1.3409961"
         sodipodi:ry="1.1494253"
         d="m 517.33715,1002.8411 c 0,0.6348 -0.60038,1.1495 -1.341,1.1495 -0.74061,0 -1.34099,-0.5147 -1.34099,-1.1495 0,-0.6348 0.60038,-1.1494 1.34099,-1.1494 0.74062,0 1.341,0.5146 1.341,1.1494 z"
         transform="matrix(0.7457143,0,0,0.87000001,147.2143,131.43425)" />
    </g>
  </g>
</svg>
