<?xml version="1.0" encoding="UTF-8" standalone="no"?>
<svg xmlns:rdf="http://www.w3.org/1999/02/22-rdf-syntax-ns#" xmlns="http://www.w3.org/2000/svg" xmlns:cc="http://creativecommons.org/ns#" xmlns:dc="http://purl.org/dc/elements/1.1/" version="1.1" xml:space="preserve" height="25" width="25" enable-background="new 0 0 28.347 28.347" y="0px" x="0px" viewBox="0 0 25 25">
  <metadata>
    <rdf:RDF>
      <cc:Work rdf:about="">
        <dc:format>image/svg+xml</dc:format>
        <dc:type rdf:resource="http://purl.org/dc/dcmitype/StillImage"/>
        <dc:title/>
      </cc:Work>
    </rdf:RDF>
  </metadata>
  <g transform="matrix(1.2870675,0,0,1.2868688,-5.5434494,-0.22782563)">
    <path stroke="#FFF" d="m23.231,17.26c0,1.018-0.824,1.844-1.844,1.844h-14.738c-1.018,0-1.842-0.826-1.842-1.844v-14.739c0-1.018,0.824-1.844,1.842-1.844h14.738c1.02,0,1.844,0.826,1.844,1.844v14.739z" fill="#e17000"/>
    <path d="m11.544,9.582h4.619l-1.523-3.77h-1.572l-1.524,3.77zm-2.582-3.77v-1.392h10.119v1.393h-2.555l1.52,3.77h3.77v1.393h-3.201l1.781,4.389h-1.729l-1.783-4.389h-5.756l-1.766,4.387h-1.73l1.768-4.389h-3.176v-1.393h3.744l1.523-3.77h-2.529z" fill="#FFF"/>
  </g>
</svg>
