<?xml version="1.0" encoding="UTF-8" standalone="no"?>
<svg xmlns="http://www.w3.org/2000/svg" height="64" width="64" version="1.1">
    <rect height="64" width="64" y="0" x="0" fill="#c9eb70"/>
    <path d="m16.695 0.67002h6.6v0.66h-6.6v-0.66z" fill="#0084a8"/>
    <path d="m10.695 15.67h6.6v0.66h-6.6v-0.66z" fill="#0084a8"/>
    <path d="m17.305 15.67h6.6v0.66h-6.6v-0.66z" fill="#0084a8"/>
    <path d="m29.914 15.67h6.6v0.66h-6.6v-0.66z" fill="#0084a8"/>
    <path d="m40.695 30.67h6.6v0.66h-6.6v-0.66z" fill="#0084a8"/>
    <path d="m47.305 30.67h6.6v0.66h-6.6v-0.66z" fill="#0084a8"/>
    <path d="m16.695 32.67h6.6v0.66h-6.6v-0.66z" fill="#0084a8"/>
    <path d="m10.695 47.67h6.6v0.66h-6.6v-0.66z" fill="#0084a8"/>
    <path d="m17.305 47.67h6.6v0.66h-6.6v-0.66z" fill="#0084a8"/>
    <path d="m29.914 47.67h6.6v0.66h-6.6v-0.66z" fill="#0084a8"/>
    <path d="m40.695 62.67h6.6v0.66h-6.6v-0.66z" fill="#0084a8"/>
    <path d="m47.305 62.67h6.6v0.66h-6.6v-0.66z" fill="#0084a8"/>
</svg>
