<?xml version="1.0" encoding="UTF-8" standalone="no"?>
<!-- Generator: Adobe Illustrator 15.0.2, SVG Export Plug-In . SVG Version: 6.00 Build 0)  -->
<svg xmlns:rdf="http://www.w3.org/1999/02/22-rdf-syntax-ns#" xmlns="http://www.w3.org/2000/svg" xml:space="preserve" height="100%" viewBox="0 0 25 25" width="100%" version="1.1" y="0px" x="0px" xmlns:cc="http://creativecommons.org/ns#" xmlns:dc="http://purl.org/dc/elements/1.1/" enable-background="new 0 0 28.347 28.347"><metadata><rdf:RDF><cc:Work rdf:about=""><dc:format>image/svg+xml</dc:format><dc:type rdf:resource="http://purl.org/dc/dcmitype/StillImage"/><dc:title/></cc:Work></rdf:RDF></metadata>
<g transform="matrix(1.2870049,0,0,1.2868652,-6.0373749,-0.98570391)"><path stroke="#FFF" d="m23.616,17.849c0,1.018-0.824,1.844-1.844,1.844h-14.738c-1.018,0-1.843-0.826-1.843-1.844v-14.739c0-1.018,0.825-1.844,1.843-1.844h14.738c1.02,0,1.844,0.826,1.844,1.844v14.739z" fill="#535353"/><g transform="translate(0,-3.3470001)">
	<path d="m18.34,16.655c-1.262,0-2.554-0.727-3.993-1.794-1.212,0.889-2.585,1.794-4.04,1.794-2.004,0-2.99-1.261-2.99-2.764,0-1.632,1.228-2.894,3.087-2.894,1.341,0,2.65,0.744,4.056,1.811,1.164-0.889,2.586-1.811,4.008-1.811,1.955,0,3.021,1.213,3.021,2.748,0.001,1.569-1.13,2.91-3.149,2.91zm-7.952-4.153c-0.904,0-1.374,0.614-1.374,1.309,0,0.775,0.501,1.325,1.406,1.325,0.76,0,1.632-0.532,2.634-1.276-1.05-0.793-1.907-1.358-2.666-1.358zm8,0c-0.759,0-1.648,0.565-2.635,1.293,1.052,0.791,1.907,1.341,2.684,1.341,0.889,0,1.373-0.613,1.373-1.309,0-0.776-0.517-1.325-1.422-1.325z" fill="#FFF"/>
</g></g>
</svg>
