<?xml version="1.0" encoding="UTF-8" standalone="no"?>
<svg xmlns:rdf="http://www.w3.org/1999/02/22-rdf-syntax-ns#" xmlns="http://www.w3.org/2000/svg" xmlns:cc="http://creativecommons.org/ns#" xmlns:dc="http://purl.org/dc/elements/1.1/" height="25" width="25" version="1.1">
  <metadata>
    <rdf:RDF>
      <cc:Work rdf:about="">
        <dc:format>image/svg+xml</dc:format>
        <dc:type rdf:resource="http://purl.org/dc/dcmitype/StillImage"/>
        <dc:title/>
      </cc:Work>
    </rdf:RDF>
  </metadata>
  <g transform="translate(0,-1027.3622)">
    <g stroke="#FFF" transform="translate(-250.65258,547.54242)">
      <path stroke-linejoin="miter" style="enable-background:accumulate;color:#000000;" d="m275.15,501.92c0,1.3258-1.0734,2.4015-2.402,2.4015h-19.198c-1.3261,0-2.3994-1.0757-2.3994-2.4015v-19.196c0-1.3258,1.0734-2.4015,2.3994-2.4015h19.198c1.3287,0,2.402,1.0757,2.402,2.4015v19.196z" fill-rule="nonzero" stroke-dashoffset="0" stroke-linecap="butt" stroke-miterlimit="4" stroke-dasharray="none" stroke-width="0.99999994" fill="#d52b1e"/>
      <line stroke-width="2" y2="495.04" x2="271.2" y1="495.04" x1="255.03" fill="none"/>
      <rect stroke-linejoin="round" height="16.07" width="16.235" y="484.29" x="255" stroke-width="1.9305" fill="none"/>
      <line stroke-width="2" y2="489.6" y1="489.6" x2="271.28" x1="255.1" fill="none"/>
      <line stroke-width="2" y2="495.04" y1="495.04" x2="271.2" x1="255.03" fill="none"/>
      <rect stroke-linejoin="round" height="16.07" width="16.235" y="484.29" x="255" stroke-width="1.9305" fill="none"/>
      <line stroke-width="2" y2="489.6" x2="271.28" y1="489.6" x1="255.1" fill="none"/>
      <line stroke-width="2" y2="489.6" y1="489.6" x2="271.28" x1="255.1" fill="none"/>
    </g>
  </g>
</svg>
