<?xml version="1.0" encoding="UTF-8" standalone="no"?>
<svg xmlns:rdf="http://www.w3.org/1999/02/22-rdf-syntax-ns#" xmlns="http://www.w3.org/2000/svg" xmlns:cc="http://creativecommons.org/ns#" xmlns:dc="http://purl.org/dc/elements/1.1/" version="1.1" xml:space="preserve" height="25" width="25" enable-background="new 0 0 28.347 28.347" y="0px" x="0px" viewBox="0 0 25 25">
  <metadata>
    <rdf:RDF>
      <cc:Work rdf:about="">
        <dc:format>image/svg+xml</dc:format>
        <dc:type rdf:resource="http://purl.org/dc/dcmitype/StillImage"/>
        <dc:title/>
      </cc:Work>
    </rdf:RDF>
  </metadata>
  <g transform="matrix(1.3025528,0,0,1.3024114,-5.7613713,-4.9110542)">
    <path stroke="#FFF" stroke-width="0.76776487" d="m23.232,20.738c0,1.018-0.824,1.844-1.844,1.844h-14.738c-1.018,0-1.843-0.826-1.843-1.844v-14.739c0-1.018,0.825-1.844,1.843-1.844h14.738c1.02,0,1.844,0.826,1.844,1.844v14.739z" fill="#e17000"/>
    <line stroke-width="1.1516" x1="21.247" y1="15.963" stroke="#FFF" stroke-linecap="round" x2="6.793" y2="10.123" fill="none"/>
    <circle d="M 15.562,14.488 C 15.562,15.662157 14.610157,16.614 13.436,16.614 12.261843,16.614 11.31,15.662157 11.31,14.488 11.31,13.313843 12.261843,12.362 13.436,12.362 14.610157,12.362 15.562,13.313843 15.562,14.488 z" cy="14.488" cx="13.436" r="2.126" fill="#FFF"/>
  </g>
</svg>
