<?xml version="1.0" encoding="UTF-8" standalone="no"?>
<svg xmlns:rdf="http://www.w3.org/1999/02/22-rdf-syntax-ns#" xmlns="http://www.w3.org/2000/svg" xmlns:cc="http://creativecommons.org/ns#" xmlns:dc="http://purl.org/dc/elements/1.1/" version="1.1" xml:space="preserve" height="25" width="25" enable-background="new 0 0 28.347 28.347" y="0px" x="0px" viewBox="0 0 25 25">
  <metadata>
    <rdf:RDF>
      <cc:Work rdf:about="">
        <dc:format>image/svg+xml</dc:format>
        <dc:type rdf:resource="http://purl.org/dc/dcmitype/StillImage"/>
        <dc:title/>
      </cc:Work>
    </rdf:RDF>
  </metadata>
  <g transform="matrix(1.302577,0,0,1.302365,-5.7614876,-5.2681568)">
    <path stroke="#FFF" stroke-width="0.76777142" d="m23.232,21.013c0,1.018-0.824,1.844-1.844,1.844h-14.738c-1.018,0-1.843-0.826-1.843-1.844v-14.74c0-1.018,0.825-1.844,1.843-1.844h14.738c1.02,0,1.844,0.826,1.844,1.844v14.74z" fill="#e17000"/>
    <rect height="2.834" width="10.033" y="8.398" x="9.004" fill="#FFF"/>
    <polygon points="21.037,15.131,7.003,15.131,9.004,13.295,19.037,13.295" fill="#FFF"/>
    <polyline stroke-width="0.76777142" stroke="#FFF" points="10.049,18.889,10.045,14.049,11.043,13.705,11.033,8.617" fill="none"/>
    <polyline stroke-width="0.76777142" stroke="#FFF" points="17.031,9.342,17.004,13.799,17.996,14.143,17.996,18.756" fill="none"/>
  </g>
</svg>
