<?xml version="1.0" encoding="UTF-8" standalone="no"?>
<!-- Generator: Adobe Illustrator 15.0.2, SVG Export Plug-In . SVG Version: 6.00 Build 0)  -->

<svg
   xmlns:dc="http://purl.org/dc/elements/1.1/"
   xmlns:cc="http://creativecommons.org/ns#"
   xmlns:rdf="http://www.w3.org/1999/02/22-rdf-syntax-ns#"
   xmlns:svg="http://www.w3.org/2000/svg"
   xmlns="http://www.w3.org/2000/svg"
   xmlns:sodipodi="http://sodipodi.sourceforge.net/DTD/sodipodi-0.dtd"
   xmlns:inkscape="http://www.inkscape.org/namespaces/inkscape"
   enable-background="new 0 0 28.347 28.347"
   xml:space="preserve"
   viewBox="0 0 25 25"
   version="1.1"
   y="0px"
   x="0px"
   id="svg2"
   inkscape:version="0.48.0 r9654"
   width="100%"
   height="100%"
   sodipodi:docname="zonnepaneel.svg"
   inkscape:export-filename="/media/Storage/projecten/2011/19_bgt_imgeo_vis_revisie/03_ontwerp/grafisch/zonnepaneel.png"
   inkscape:export-xdpi="300"
   inkscape:export-ydpi="300"><defs
   id="defs30">
	
		
		
		
		
		
		
		
		
		
</defs><sodipodi:namedview
   pagecolor="#ffffff"
   bordercolor="#666666"
   borderopacity="1"
   objecttolerance="10"
   gridtolerance="10"
   guidetolerance="10"
   inkscape:pageopacity="0"
   inkscape:pageshadow="2"
   inkscape:window-width="739"
   inkscape:window-height="480"
   id="namedview28"
   showgrid="false"
   inkscape:zoom="9.4870588"
   inkscape:cx="12.5"
   inkscape:cy="12.5"
   inkscape:window-x="0"
   inkscape:window-y="24"
   inkscape:window-maximized="0"
   inkscape:current-layer="svg2" /><metadata
   id="metadata4"><rdf:RDF><cc:Work
       rdf:about=""><dc:format>image/svg+xml</dc:format><dc:type
         rdf:resource="http://purl.org/dc/dcmitype/StillImage" /><dc:title></dc:title></cc:Work></rdf:RDF></metadata>
<path
   style="fill:#947100;stroke:#ffffff;stroke-width:0.99999994000000003;fill-opacity:1"
   inkscape:connector-curvature="0"
   id="path8"
   d="m 24.499981,22.098309 c 0,1.325879 -1.073323,2.401691 -2.401952,2.401691 H 2.9006493 C 1.574626,24.5 0.49999993,23.424188 0.49999993,22.098309 V 2.9017105 c 0,-1.3258795 1.07462607,-2.40169127 2.40064937,-2.40169127 H 22.098029 c 1.328629,0 2.401952,1.07581177 2.401952,2.40169127 V 22.098309 z" /><polygon
   style="fill:#ffffff"
   id="polygon10"
   points="13.119,10.999 10.56,10.999 12.037,7.742 14.597,7.742 "
   transform="matrix(1.302577,0,0,1.3024356,-5.8696016,-5.4573212)" /><polygon
   style="fill:#ffffff"
   id="polygon12"
   points="16.648,10.999 14.09,10.999 15.567,7.742 18.126,7.742 "
   transform="matrix(1.302577,0,0,1.3024356,-5.8696016,-5.4573212)" /><polygon
   style="fill:#ffffff"
   id="polygon14"
   points="20.179,10.999 17.618,10.999 19.096,7.742 21.655,7.742 "
   transform="matrix(1.302577,0,0,1.3024356,-5.8696016,-5.4573212)" /><polygon
   style="fill:#ffffff"
   id="polygon16"
   points="9.11,19.833 6.551,19.833 8.028,16.576 10.588,16.576 "
   transform="matrix(1.302577,0,0,1.3024356,-5.8696016,-5.4573212)" /><polygon
   style="fill:#ffffff"
   id="polygon18"
   points="12.64,19.833 10.08,19.833 11.56,16.576 14.117,16.576 "
   transform="matrix(1.302577,0,0,1.3024356,-5.8696016,-5.4573212)" /><polygon
   style="fill:#ffffff"
   id="polygon20"
   points="16.169,19.833 13.609,19.833 15.087,16.576 17.646,16.576 "
   transform="matrix(1.302577,0,0,1.3024356,-5.8696016,-5.4573212)" /><polygon
   style="fill:#ffffff"
   id="polygon22"
   points="11.115,15.416 8.556,15.416 10.032,12.159 12.593,12.159 "
   transform="matrix(1.302577,0,0,1.3024356,-5.8696016,-5.4573212)" /><polygon
   style="fill:#ffffff"
   id="polygon24"
   points="14.644,15.416 12.085,15.416 13.562,12.159 16.121,12.159 "
   transform="matrix(1.302577,0,0,1.3024356,-5.8696016,-5.4573212)" /><polygon
   style="fill:#ffffff"
   id="polygon26"
   points="18.174,15.416 15.614,15.416 17.091,12.159 19.651,12.159 "
   transform="matrix(1.302577,0,0,1.3024356,-5.8696016,-5.4573212)" />
</svg>