<?xml version="1.0" encoding="UTF-8" standalone="no"?>
<svg xmlns:rdf="http://www.w3.org/1999/02/22-rdf-syntax-ns#" xmlns="http://www.w3.org/2000/svg" xmlns:cc="http://creativecommons.org/ns#" xmlns:dc="http://purl.org/dc/elements/1.1/" version="1.1" xml:space="preserve" height="25" width="25" enable-background="new 0 0 28.347 28.347" y="0px" x="0px" viewBox="0 0 25 25">
  <metadata>
    <rdf:RDF>
      <cc:Work rdf:about="">
        <dc:format>image/svg+xml</dc:format>
        <dc:type rdf:resource="http://purl.org/dc/dcmitype/StillImage"/>
        <dc:title/>
      </cc:Work>
    </rdf:RDF>
  </metadata>
  <g stroke="#FFF" transform="matrix(1.2870013,0,0,1.2868688,-5.7954,-4.96606)">
    <path d="m23.428,20.942c0,1.018-0.824,1.844-1.844,1.844h-14.738c-1.018,0-1.843-0.826-1.843-1.844v-14.739c0-1.018,0.825-1.844,1.843-1.844h14.738c1.02,0,1.844,0.826,1.844,1.844v14.739z" fill="#f092cd"/>
    <polyline stroke-linejoin="round" stroke-linecap="round" fill="none" points="10.891,21.367,14.139,5.777,17.541,21.367"/>
    <polygon stroke-linejoin="round" points="16.107,14.779,13.07,11.003,15.285,11.003,12.314,14.766" stroke-linecap="round" stroke-width="0.5" fill="none"/>
    <polyline stroke-linejoin="round" points="12.314,14.766,17.236,19.875,11.178,19.879,16.107,14.779" stroke-linecap="round" stroke-width="0.5" fill="none"/>
  </g>
</svg>
