<?xml version="1.0" encoding="UTF-8" standalone="no"?>
<!-- Generator: Adobe Illustrator 15.0.2, SVG Export Plug-In . SVG Version: 6.00 Build 0)  -->
<svg xmlns:rdf="http://www.w3.org/1999/02/22-rdf-syntax-ns#" xmlns="http://www.w3.org/2000/svg" enable-background="new 0 0 28.347 28.347" xml:space="preserve" viewBox="0 0 25 25" version="1.1" y="0px" x="0px" xmlns:cc="http://creativecommons.org/ns#" xmlns:dc="http://purl.org/dc/elements/1.1/"><metadata><rdf:RDF><cc:Work rdf:about=""><dc:format>image/svg+xml</dc:format><dc:type rdf:resource="http://purl.org/dc/dcmitype/StillImage"/><dc:title/></cc:Work></rdf:RDF></metadata>
<g transform="matrix(1.3026235,0,0,1.3024114,-5.7617112,-5.3616885)">
	<path d="m23.231,21.084c0,1.018-0.824,1.844-1.842,1.844h-14.74c-1.018,0-1.842-0.826-1.842-1.844v-14.739c0-1.018,0.824-1.844,1.842-1.844h14.74c1.018,0,1.842,0.826,1.842,1.844v14.739z" stroke="#FFF" stroke-width="0.76774395" fill="#e17000"/>
		<path fill="#FFF" d="m19.122,16.716s-2.041-0.68-2.041-3.061,5.867-5.63-3.062-5.63-3.061,3.249-3.061,5.63-2.041,3.061-2.041,3.061"/>
		<polyline points="8.917,17.616,8.917,19.402,19.122,19.402,19.122,17.616" fill="#FFF"/>
</g>
</svg>
