<?xml version="1.0" encoding="UTF-8" standalone="no"?>
<!-- Generator: Adobe Illustrator 15.0.2, SVG Export Plug-In . SVG Version: 6.00 Build 0)  -->
<svg xmlns:rdf="http://www.w3.org/1999/02/22-rdf-syntax-ns#" xmlns="http://www.w3.org/2000/svg" enable-background="new 0 0 28.347 28.347" xml:space="preserve" viewBox="0 0 25 25" version="1.1" y="0px" x="0px" xmlns:cc="http://creativecommons.org/ns#" xmlns:dc="http://purl.org/dc/elements/1.1/"><metadata><rdf:RDF><cc:Work rdf:about=""><dc:format>image/svg+xml</dc:format><dc:type rdf:resource="http://purl.org/dc/dcmitype/StillImage"/><dc:title/></cc:Work></rdf:RDF></metadata>
<g transform="matrix(1.302577,0,0,1.3025063,-6.0167927,-0.66442171)"><path d="m23.428,17.476c0,1.018-0.824,1.844-1.843,1.844h-14.739c-1.018,0-1.843-0.826-1.843-1.844v-14.738c0-1.018,0.825-1.844,1.843-1.844h14.739c1.019,0,1.843,0.826,1.843,1.844v14.738z" stroke="#FFF" stroke-width="0.76772976" fill="#a90061"/><polygon points="11.94,14.458,11.94,10.747,14.775,10.747,14.775,20.667,11.94,20.667" fill="#FFF" transform="translate(0,-3.3470001)"/><g transform="translate(0,-3.3470001)">
	<path d="m11.232,9.755c-0.154,0.699,1.399,2.17,2.075,2.076,0.677-0.094,0.783-0.201,1.351-0.723,0.568-0.521,3.629-3.955,3.753-4.162s0.181-0.398,0.134-0.607c-0.045-0.209-0.035-0.504-0.396-0.455-0.359,0.051-3.01,1.154-4.302,1.836-1.318,0.693-2.506,1.545-2.615,2.035z" stroke="#a90061" stroke-width="1.53545952" fill="none"/>
	<path d="m11.232,9.755c-0.154,0.699,1.399,2.17,2.075,2.076,0.677-0.094,0.783-0.201,1.351-0.723,0.568-0.521,3.629-3.955,3.753-4.162s0.181-0.398,0.134-0.607c-0.045-0.209-0.035-0.504-0.396-0.455-0.359,0.051-3.01,1.154-4.302,1.836-1.318,0.693-2.506,1.545-2.615,2.035z" fill="#FFF"/>
</g></g>
</svg>
