<?xml version="1.0" encoding="UTF-8" standalone="no"?>
<svg xmlns:rdf="http://www.w3.org/1999/02/22-rdf-syntax-ns#" xmlns="http://www.w3.org/2000/svg" xmlns:cc="http://creativecommons.org/ns#" xmlns:dc="http://purl.org/dc/elements/1.1/" enable-background="new 0 0 28.347 28.347" xml:space="preserve" height="25" viewBox="0 0 25 25" width="25" version="1.1" y="0px" x="0px">
  <metadata>
    <rdf:RDF>
      <cc:Work rdf:about="">
        <dc:format>image/svg+xml</dc:format>
        <dc:type rdf:resource="http://purl.org/dc/dcmitype/StillImage"/>
        <dc:title/>
      </cc:Work>
    </rdf:RDF>
  </metadata>
  <g transform="matrix(1.3026235,0,0,1.3024114,-5.8711316,-0.72119674)">
    <path d="m23.315,17.521c0,1.018-0.824,1.844-1.844,1.844h-14.738c-1.018,0-1.842-0.826-1.842-1.844v-14.739c0-1.018,0.824-1.844,1.842-1.844h14.738c1.02,0,1.844,0.826,1.844,1.844v14.739z" stroke="#FFF" stroke-width="0.767744" fill="#007bc7"/>
    <g transform="translate(0,-3.3470001)" fill="#FFF">
      <path d="m10.626,20.407-1.848-3.07c-0.239-0.392-0.432-0.775-0.6-1.136,0.032,0.528,0.048,1.623,0.048,2.391v1.815h-0.846v-5.397h1.143l1.783,2.942c0.24,0.4,0.456,0.832,0.656,1.224-0.032-0.615-0.057-1.774-0.057-2.566v-1.6h0.848v5.397h-1.127z"/>
      <path d="M16.329,20.407,15.914,19.216h-2.184l-0.415,1.191h-0.88l1.936-5.397h0.967l1.959,5.397h-0.968zm-1.263-3.582c-0.104-0.28-0.176-0.536-0.24-0.832h0.399c-0.057,0.272-0.145,0.568-0.248,0.856l-0.607,1.671h1.727l-0.616-1.695z"/>
      <path d="m19.242,18.433c-0.119,0-0.264,0-0.399-0.017v1.991h-0.871v-5.397c0.415-0.016,0.879-0.031,1.383-0.031,1.279,0,1.983,0.623,1.983,1.623,0,1.046-0.84,1.831-2.096,1.831zm0.049-2.744c-0.168,0-0.305,0-0.448,0.017v1.975c0.12,0.016,0.256,0.032,0.384,0.032,0.728-0.008,1.207-0.408,1.207-1.04,0-0.615-0.36-0.984-1.143-0.984z"/>
    </g>
    <circle d="M 16.939,9.5620003 C 16.939,11.127728 15.669727,12.397 14.104,12.397 12.538273,12.397 11.269,11.127728 11.269,9.5620003 11.269,7.996273 12.538273,6.7270002 14.104,6.7270002 15.669727,6.7270002 16.939,7.996273 16.939,9.5620003 z" cx="14.104" cy="9.562" transform="translate(0,-3.3470001)" r="2.835" fill="#FFF"/>
  </g>
</svg>
