<?xml version="1.0" encoding="UTF-8" standalone="no"?>
<!-- Generator: Adobe Illustrator 15.0.2, SVG Export Plug-In . SVG Version: 6.00 Build 0)  -->
<svg xmlns:rdf="http://www.w3.org/1999/02/22-rdf-syntax-ns#" xmlns="http://www.w3.org/2000/svg" enable-background="new 0 0 28.347 28.347" xml:space="preserve" viewBox="0 0 25 25" version="1.1" y="0px" x="0px" xmlns:cc="http://creativecommons.org/ns#" xmlns:dc="http://purl.org/dc/elements/1.1/"><metadata><rdf:RDF><cc:Work rdf:about=""><dc:format>image/svg+xml</dc:format><dc:type rdf:resource="http://purl.org/dc/dcmitype/StillImage"/><dc:title/></cc:Work></rdf:RDF></metadata>
<g transform="matrix(1.3026487,0,0,1.3024366,-5.7618414,-1.0472846)"><path d="m23.231,17.771c0,1.018-0.824,1.844-1.844,1.844h-14.738c-1.018,0-1.842-0.826-1.842-1.844v-14.739c0-1.018,0.824-1.844,1.842-1.844h14.738c1.02,0,1.844,0.826,1.844,1.844v14.739z" stroke="#FFF" stroke-width="0.76772904" fill="#e17000"/><path d="M21.179,13.945h-14.174v-7.088h14.174v7.088zm-7.752-4.605c0-0.414-0.223-0.75-0.496-0.75h-4.678c-0.273,0-0.496,0.336-0.496,0.75s0.223,0.75,0.496,0.75h4.678c0.273,0,0.496-0.336,0.496-0.75zm7,0c0-0.414-0.223-0.75-0.496-0.75h-4.678c-0.273,0-0.496,0.336-0.496,0.75s0.223,0.75,0.496,0.75h4.678c0.273,0,0.496-0.336,0.496-0.75z" fill="#FFF"/></g>
</svg>
