<?xml version="1.0" encoding="UTF-8" standalone="no"?>
<!-- Created with Inkscape (http://www.inkscape.org/) -->
<svg xmlns:rdf="http://www.w3.org/1999/02/22-rdf-syntax-ns#" xmlns="http://www.w3.org/2000/svg" xmlns:cc="http://creativecommons.org/ns#" xmlns:dc="http://purl.org/dc/elements/1.1/" height="25" width="25" version="1.1">
  <metadata>
    <rdf:RDF>
      <cc:Work rdf:about="">
        <dc:format>image/svg+xml</dc:format>
        <dc:type rdf:resource="http://purl.org/dc/dcmitype/StillImage"/>
        <dc:title/>
      </cc:Work>
    </rdf:RDF>
  </metadata>
  <g transform="translate(0,-1027.3622)">
    <g transform="translate(-511.12341,196.18744)">
      <path d="m535.62,853.27c0,1.3258-1.0733,2.4016-2.402,2.4016h-19.197c-1.326,0-2.4006-1.0758-2.4006-2.4016v-19.197c0-1.3258,1.0746-2.4016,2.4006-2.4016h19.197c1.3286,0,2.402,1.0758,2.402,2.4016v19.197z" stroke="#FFF" stroke-width="1" fill="#535353"/>
      <path d="m529.86,846.37c0-0.009-0.14427-1.103-0.14427-1.103v-5.0461c0-0.54009-0.1785-0.97947-0.54466-1.3479l-2.3366-2.3251c-0.16019,0-0.60873,0.44396-0.60873,0.44396,0,0.16258,1.1603,1.3136,1.1603,1.3136l-0.0345,1.959c0,0.69341,0.56526,1.2587,1.2632,1.2587l0.31352,0.002-0.11204,3.7417,0.15562,1.2838,0.70256,3.7874c0.0275,0.61561-0.53551,0.98176-0.97947,0.98176-0.40964,0-0.88565-0.34098-0.88565-0.77809l0.009-6.6343c0-0.80785-0.65679-1.4624-1.4624-1.4624h-1.4097c0.0983-0.008,0.1029-4.3458,0.1029-5.2681v-0.16935c0-0.78495-0.64307-1.4234-1.428-1.4234h-4.1147c-0.78725,0-1.428,0.63849-1.428,1.4234v15.04l6.9707,0.11442,0.004-8.7855h1.3182c0.30208,0,0.54695,0.24487,0.54695,0.54695v6.6183c0,0.88794,0.82843,1.666,1.7759,1.666,0.8948,0,1.8949-0.71172,1.8949-1.666-0.0147-0.22198-0.73002-4.1719-0.73002-4.1719" fill-rule="nonzero" fill="#FFF"/>
      <path d="m528.53,839.49c-0.0824-0.0229-0.42795-0.0985-0.42795-0.0985v0.8948c0,0.24715,0.18995,0.51491,0.70943,0.62933,0,0,0.006-0.67052,0-0.89709-0.004-0.22426-0.11205-0.48516-0.28148-0.52864" fill-rule="nonzero" fill="#535353"/>
      <path d="m523.62,836.62-4.1147,0c-0.22198,0-0.39362,0.17155-0.39362,0.38905v3.4694c0,0.21969,0.17155,0.38904,0.39362,0.38904h4.1147c0.21969,0,0.39133-0.16935,0.39133-0.38904v-3.4694c0-0.21741-0.17155-0.38905-0.39133-0.38905" fill-rule="nonzero" fill="#535353"/>
    </g>
  </g>
</svg>
