<?xml version="1.0" encoding="UTF-8" standalone="no"?>
<!-- Generator: Adobe Illustrator 15.0.2, SVG Export Plug-In . SVG Version: 6.00 Build 0)  -->

<svg
   xmlns:dc="http://purl.org/dc/elements/1.1/"
   xmlns:cc="http://creativecommons.org/ns#"
   xmlns:rdf="http://www.w3.org/1999/02/22-rdf-syntax-ns#"
   xmlns:svg="http://www.w3.org/2000/svg"
   xmlns="http://www.w3.org/2000/svg"
   xmlns:sodipodi="http://sodipodi.sourceforge.net/DTD/sodipodi-0.dtd"
   xmlns:inkscape="http://www.inkscape.org/namespaces/inkscape"
   version="1.1"
   id="iconen"
   x="0px"
   y="0px"
   width="25"
   height="25"
   viewBox="0 0 25 25"
   enable-background="new 0 0 28.347 28.347"
   xml:space="preserve"
   inkscape:version="0.48.0 r9654"
   sodipodi:docname="Park.svg"><metadata
   id="metadata15"><rdf:RDF><cc:Work
       rdf:about=""><dc:format>image/svg+xml</dc:format><dc:type
         rdf:resource="http://purl.org/dc/dcmitype/StillImage" /></cc:Work></rdf:RDF></metadata><defs
   id="defs13" /><sodipodi:namedview
   pagecolor="#ffffff"
   bordercolor="#666666"
   borderopacity="1"
   objecttolerance="10"
   gridtolerance="10"
   guidetolerance="10"
   inkscape:pageopacity="0"
   inkscape:pageshadow="2"
   inkscape:window-width="724"
   inkscape:window-height="480"
   id="namedview11"
   showgrid="false"
   inkscape:zoom="8.8898296"
   inkscape:cx="14.1735"
   inkscape:cy="14.1735"
   inkscape:window-x="0"
   inkscape:window-y="24"
   inkscape:window-maximized="0"
   inkscape:current-layer="iconen" />
<g
   id="g3"
   transform="matrix(1.2870013,0,0,1.2868688,-6.0373562,-5.0715832)">
	<path
   d="m 23.616,21.024 c 0,1.018 -0.824,1.844 -1.844,1.844 H 7.034 c -1.018,0 -1.843,-0.826 -1.843,-1.844 V 6.285 c 0,-1.018 0.825,-1.844 1.843,-1.844 h 14.738 c 1.02,0 1.844,0.826 1.844,1.844 v 14.739 z"
   id="path5"
   inkscape:connector-curvature="0"
   style="fill:#39870c;stroke:#ffffff" />
	<path
   d="m 13.427,9.994 c 0.041,-0.189 0.064,-0.385 0.064,-0.585 0,-1.526 -1.236,-2.765 -2.764,-2.765 -1.526,0 -2.764,1.238 -2.764,2.765 0,0.184 0.02,0.362 0.054,0.536 -0.633,0.345 -1.069,1.008 -1.069,1.779 0,1.123 0.911,2.033 2.033,2.033 0.488,0 0.931,-0.176 1.281,-0.463 v 1.854 h 0.93 v -2.063 c 0.35,0.356 0.832,0.582 1.372,0.582 1.073,0 1.942,-0.869 1.942,-1.942 10e-4,-0.761 -0.442,-1.413 -1.079,-1.731 z"
   id="path7"
   inkscape:connector-curvature="0"
   style="fill:#ffffff" />
	<path
   d="m 20.533,15.448 c 0.041,-0.189 0.064,-0.385 0.064,-0.585 0,-1.526 -1.236,-2.765 -2.764,-2.765 -1.526,0 -2.764,1.238 -2.764,2.765 0,0.184 0.021,0.362 0.054,0.536 -0.633,0.345 -1.068,1.008 -1.068,1.779 0,1.123 0.91,2.033 2.033,2.033 0.487,0 0.931,-0.176 1.28,-0.463 v 1.854 h 0.93 v -2.063 c 0.35,0.356 0.832,0.582 1.372,0.582 1.073,0 1.942,-0.869 1.942,-1.942 0.001,-0.761 -0.441,-1.412 -1.079,-1.731 z"
   id="path9"
   inkscape:connector-curvature="0"
   style="fill:#ffffff" />
</g>
</svg>