<?xml version="1.0" encoding="UTF-8" standalone="no"?>
<!-- Generator: Adobe Illustrator 15.0.2, SVG Export Plug-In . SVG Version: 6.00 Build 0)  -->
<svg xmlns:rdf="http://www.w3.org/1999/02/22-rdf-syntax-ns#" xmlns="http://www.w3.org/2000/svg" enable-background="new 0 0 28.347 28.347" xml:space="preserve" viewBox="0 0 25 25" version="1.1" y="0px" x="0px" xmlns:cc="http://creativecommons.org/ns#" xmlns:dc="http://purl.org/dc/elements/1.1/"><metadata><rdf:RDF><cc:Work rdf:about=""><dc:format>image/svg+xml</dc:format><dc:type rdf:resource="http://purl.org/dc/dcmitype/StillImage"/><dc:title/></cc:Work></rdf:RDF></metadata>
<g transform="matrix(1.2870013,0,0,1.2868688,-5.9292481,-1.2251324)"><path d="m23.532,18.035c0,1.018-0.824,1.844-1.844,1.844h-14.738c-1.018,0-1.843-0.826-1.843-1.844v-14.739c0-1.018,0.825-1.844,1.843-1.844h14.738c1.02,0,1.844,0.826,1.844,1.844v14.739z" fill="#39870c" stroke="#FFF"/><line x1="7.233" y1="13.914" stroke="#FFF" x2="21.406" y2="13.914" fill="none"/><g transform="translate(0,-3.3470001)">
	<path d="m11.619,20.943h-1.508l0.229-5.734s-2.169,0.163-2.899-1.368c-0.73-1.53-0.042-2.673,0.104-2.917,0.146-0.245,0.562-0.571,0.562-0.571s-0.688-3.511,2.525-3.49c3.212,0.02,2.523,3.511,2.523,3.511s1.211,0.633,1.189,2.122-0.898,2.184-1.523,2.429c-0.626,0.244-1.502,0.285-1.502,0.285l0.3,5.733z" stroke="#39870c" stroke-width="2" fill="none"/>
	<path d="m11.619,20.943h-1.508l0.229-5.734s-2.169,0.163-2.899-1.368c-0.73-1.53-0.042-2.673,0.104-2.917,0.146-0.245,0.562-0.571,0.562-0.571s-0.688-3.511,2.525-3.49c3.212,0.02,2.523,3.511,2.523,3.511s1.211,0.633,1.189,2.122-0.898,2.184-1.523,2.429c-0.626,0.244-1.502,0.285-1.502,0.285l0.3,5.733z" fill="#FFF"/>
</g></g>
</svg>
