<?xml version="1.0" encoding="UTF-8" standalone="no"?>
<svg xmlns="http://www.w3.org/2000/svg" height="32" width="32" version="1.1">
    <rect height="32" width="32" y="0" x="0" fill="#ffc"/>
    <path d="m8.2571 9.9969q0-0.725 0.5-1.225t1.225-0.5q0.75 0 1.25 0.5t0.5 1.225q0 0.75-0.5 1.25t-1.25 0.5q-0.725 0-1.225-0.5t-0.5-1.25zm0.9 0.025q0 0.825 0.825 0.825 0.85 0 0.85-0.825 0-0.85-0.85-0.85-0.825 0-0.825 0.85z"/>
    <path d="m20.257 21.997q0-0.725 0.5-1.225t1.225-0.5q0.75 0 1.25 0.5t0.5 1.225q0 0.75-0.5 1.25t-1.25 0.5q-0.725 0-1.225-0.5t-0.5-1.25zm0.9 0.025q0 0.825 0.825 0.825 0.85 0 0.85-0.825 0-0.85-0.85-0.85-0.825 0-0.825 0.85z"/>
</svg>
