<?xml version="1.0" encoding="UTF-8" standalone="no"?>
<svg xmlns:rdf="http://www.w3.org/1999/02/22-rdf-syntax-ns#" xmlns="http://www.w3.org/2000/svg" xmlns:cc="http://creativecommons.org/ns#" xmlns:dc="http://purl.org/dc/elements/1.1/" height="25" width="25" version="1.1">
  <metadata>
    <rdf:RDF>
      <cc:Work rdf:about="">
        <dc:format>image/svg+xml</dc:format>
        <dc:type rdf:resource="http://purl.org/dc/dcmitype/StillImage"/>
        <dc:title/>
      </cc:Work>
    </rdf:RDF>
  </metadata>
  <g transform="translate(0,-1027.3622)">
    <g transform="translate(-509.36253,146.00245)">
      <path d="m533.86,903.46c0,1.3258-1.0733,2.4016-2.402,2.4016h-19.197c-1.326,0-2.4006-1.0758-2.4006-2.4016v-19.197c0-1.3258,1.0746-2.4016,2.4006-2.4016h19.197c1.3286,0,2.402,1.0758,2.402,2.4016v19.197z" stroke="#FFF" stroke-width="1" fill="#535353"/>
      <path d="m528.25,887.76c-0.1917-0.95364-0.80123-1.3346-1.718-1.7156-0.91675-0.38341-3.0624-0.8381-4.6624-0.8381-1.6025,0-3.7482,0.45469-4.6649,0.8381-0.91676,0.38097-1.5263,0.76192-1.718,1.7156l-0.68819,5.2892v7.2874h1.1871v1.1429c0,1.3911,2.04,1.3911,2.04,0v-1.1429h7.6905v1.1429c0,1.3911,2.0351,1.3911,2.0351,0v-1.1429h1.1847v-7.2874l-0.68574-5.2892zm-9.5805-1.3862,6.3952,0c0.6292,0,0.6292,1.192,0,1.192h-6.3952c-0.62674,0-0.62674-1.192,0-1.192m-1.6664,11.775c-0.59233,0-1.0741-0.47927-1.0741-1.0765,0-0.59232,0.48173-1.0741,1.0741-1.0741,0.59478,0,1.0765,0.48174,1.0765,1.0741,0,0.59725-0.48173,1.0765-1.0765,1.0765m9.7304,0c-0.59479,0-1.079-0.47927-1.079-1.0765,0-0.59232,0.48418-1.0741,1.079-1.0741,0.58986,0,1.0716,0.48174,1.0716,1.0741,0,0.59725-0.48174,1.0765-1.0716,1.0765m0.42274-4.542-10.561,0c-0.30722,0-0.56283-0.2556-0.56283-0.56282,0-0.0517,0.01-0.10091,0.0197-0.14748l0.56284-4.1709c0.0467-0.26054,0.27773-0.46207,0.55055-0.46207h9.4183c0.27282,0,0.50386,0.20153,0.55301,0.46207l0.56037,4.1709c0.01,0.0468,0.0197,0.0959,0.0197,0.14748,0,0.30722-0.25316,0.56282-0.56038,0.56282" fill-rule="nonzero" fill="#FFF"/>
    </g>
  </g>
</svg>
