<?xml version="1.0" encoding="UTF-8" standalone="no"?>
<svg xmlns:rdf="http://www.w3.org/1999/02/22-rdf-syntax-ns#" xmlns="http://www.w3.org/2000/svg" xmlns:cc="http://creativecommons.org/ns#" xmlns:dc="http://purl.org/dc/elements/1.1/" height="25" width="25" version="1.1">
  <metadata>
    <rdf:RDF>
      <cc:Work rdf:about="">
        <dc:format>image/svg+xml</dc:format>
        <dc:type rdf:resource="http://purl.org/dc/dcmitype/StillImage"/>
        <dc:title/>
      </cc:Work>
    </rdf:RDF>
  </metadata>
  <g transform="translate(-0.01483,-1027.3477)">
    <g transform="translate(-196.64142,909.66023)">
      <path stroke="#FFF" stroke-width="1" d="m221.14,139.8c0,1.3258-1.0733,2.4016-2.402,2.4016h-19.197c-1.326,0-2.4006-1.0758-2.4006-2.4016v-19.197c0-1.3258,1.0746-2.4016,2.4006-2.4016h19.197c1.3286,0,2.402,1.0758,2.402,2.4016v19.197z" fill="#535353"/>
      <g transform="matrix(1.1,0,0,1.1,-22.753897,-15.579482)">
        <polygon transform="matrix(1.302577,0,0,1.302365,190.37974,112.48639)" stroke="#535353" points="17.567,17.706,16.337,15.596,14.237,17.696,12.997,15.596,10.696,17.756,10.696,20.156,20.679,20.156,20.659,16.916,19.638,15.636" stroke-width="1.39594805" fill="none"/>
        <path fill="#FFF" d="m9.63,18.132,2.0076,0,0-3.868,2.465,0,0,3.78,5.0804,0,0-4.782-4.774-4.031-4.779,4.031z" transform="matrix(1.302577,0,0,1.3023649,191.70305,113.38908)"/>
        <rect style="color:#000000;enable-background:accumulate;" fill-rule="nonzero" height="2.5095" width="2.8721" y="131.92" x="211.64" fill="#535353"/>
      </g>
    </g>
  </g>
</svg>
