<?xml version="1.0" encoding="UTF-8" standalone="no"?>
<!-- Created with Inkscape (http://www.inkscape.org/) -->

<svg
   xmlns:dc="http://purl.org/dc/elements/1.1/"
   xmlns:cc="http://creativecommons.org/ns#"
   xmlns:rdf="http://www.w3.org/1999/02/22-rdf-syntax-ns#"
   xmlns:svg="http://www.w3.org/2000/svg"
   xmlns="http://www.w3.org/2000/svg"
   xmlns:sodipodi="http://sodipodi.sourceforge.net/DTD/sodipodi-0.dtd"
   xmlns:inkscape="http://www.inkscape.org/namespaces/inkscape"
   width="25"
   height="25"
   id="svg4581"
   version="1.1"
   inkscape:version="0.48.3.1 r9886"
   sodipodi:docname="New document 20">
  <defs
     id="defs3" />
  <sodipodi:namedview
     inkscape:document-units="mm"
     id="base"
     pagecolor="#ffffff"
     bordercolor="#666666"
     borderopacity="1.0"
     inkscape:pageopacity="0.0"
     inkscape:pageshadow="2"
     inkscape:zoom="20.88"
     inkscape:cx="12.49999"
     inkscape:cy="12.5"
     inkscape:current-layer="layer1"
     showgrid="false"
     units="px"
     inkscape:window-width="1366"
     inkscape:window-height="692"
     inkscape:window-x="0"
     inkscape:window-y="24"
     inkscape:window-maximized="1" />
  <metadata
     id="metadata4">
    <rdf:RDF>
      <cc:Work
         rdf:about="">
        <dc:format>image/svg+xml</dc:format>
        <dc:type
           rdf:resource="http://purl.org/dc/dcmitype/StillImage" />
        <dc:title></dc:title>
      </cc:Work>
    </rdf:RDF>
  </metadata>
  <g
     inkscape:label="Layer 1"
     inkscape:groupmode="layer"
     id="layer1"
     transform="translate(0,-1027.3622)">
    <path
       style="fill:#535353;stroke:#ffffff;stroke-width:1"
       inkscape:connector-curvature="0"
       d="m 24.49998,1049.4606 c 0,1.3258 -1.07333,2.4016 -2.40195,2.4016 H 2.90065 c -1.32603,0 -2.40065,-1.0758 -2.40065,-2.4016 v -19.1968 c 0,-1.3258 1.07462,-2.4016 2.40065,-2.4016 h 19.19738 c 1.32862,0 2.40195,1.0758 2.40195,2.4016 v 19.1968 z"
       id="path3360" />
    <path
       inkscape:connector-curvature="0"
       id="path3736"
       style="font-size:18px;font-style:normal;font-weight:bold;line-height:125%;letter-spacing:0px;word-spacing:0px;fill:#ffffff;fill-opacity:1;stroke:none;font-family:Sans;-inkscape-font-specification:Sans Bold"
       d="m 7.09912,1030.744 5.61622,0 c 1.66991,10e-5 2.95018,0.3721 3.84082,1.1163 0.89647,0.7383 1.34471,1.7929 1.34472,3.164 -10e-6,1.377 -0.44825,2.4375 -1.34472,3.1817 -0.89064,0.7382 -2.17091,1.1074 -3.84082,1.1074 l -2.23243,0 0,4.5527 -3.38379,0 0,-13.1221 m 3.38379,2.4522 0,3.665 1.87207,0 c 0.65625,0 1.16308,-0.1582 1.52051,-0.4746 0.35741,-0.3222 0.53613,-0.7763 0.53613,-1.3623 0,-0.5859 -0.17872,-1.0371 -0.53613,-1.3535 -0.35743,-0.3164 -0.86426,-0.4746 -1.52051,-0.4746 l -1.87207,0" />
    <g
       transform="translate(-511.12341,96.697903)"
       style="font-size:40px;font-style:normal;font-weight:normal;line-height:125%;letter-spacing:0px;word-spacing:0px;fill:#ffffff;fill-opacity:1;stroke:none;font-family:Sans"
       id="text4256">
      <path
         inkscape:connector-curvature="0"
         d="m 515.85974,949.97333 0,0.71289 c -0.11882,-0.0814 -0.23845,-0.1416 -0.35889,-0.18067 -0.11881,-0.0391 -0.24251,-0.0586 -0.37109,-0.0586 -0.24414,0 -0.43457,0.0716 -0.57129,0.21484 -0.13509,0.14161 -0.20264,0.34018 -0.20264,0.59571 0,0.25553 0.0675,0.45491 0.20264,0.59814 0.13672,0.1416 0.32715,0.2124 0.57129,0.2124 0.13672,0 0.26611,-0.0203 0.38818,-0.061 0.1237,-0.0407 0.23763,-0.10091 0.3418,-0.18067 l 0,0.71534 c -0.13672,0.0504 -0.27588,0.0879 -0.41748,0.1123 -0.13998,0.026 -0.28076,0.0391 -0.42236,0.0391 -0.49317,0 -0.87891,-0.12614 -1.15723,-0.37841 -0.27832,-0.25391 -0.41748,-0.60629 -0.41748,-1.05713 0,-0.45085 0.13916,-0.80241 0.41748,-1.05469 0.27832,-0.2539 0.66406,-0.38086 1.15723,-0.38086 0.14322,0 0.28401,0.013 0.42236,0.0391 0.13997,0.0244 0.27913,0.0618 0.41748,0.11231"
         style="font-size:5px;font-variant:normal;font-weight:bold;font-stretch:normal;fill:#ffffff;font-family:Sans;-inkscape-font-specification:Sans Bold"
         id="path4547" />
      <path
         inkscape:connector-curvature="0"
         d="m 517.8446,951.39178 c -0.18229,10e-6 -0.31982,0.0309 -0.41259,0.0928 -0.0911,0.0619 -0.13672,0.15299 -0.13672,0.27344 0,0.11067 0.0366,0.19775 0.10986,0.26123 0.0749,0.0619 0.17822,0.0928 0.31006,0.0928 0.16439,0 0.30273,-0.0586 0.41504,-0.17578 0.1123,-0.11882 0.16845,-0.26693 0.16846,-0.44434 l 0,-0.1001 -0.45411,0 m 1.33545,-0.32959 0,1.56006 -0.88134,0 0,-0.40527 c -0.11719,0.16602 -0.24903,0.28727 -0.39551,0.36377 -0.14649,0.0749 -0.32471,0.1123 -0.53467,0.1123 -0.2832,0 -0.51351,-0.0822 -0.69092,-0.24658 -0.17578,-0.16601 -0.26367,-0.38086 -0.26367,-0.64453 0,-0.32064 0.10986,-0.55582 0.32959,-0.70557 0.22135,-0.14973 0.56803,-0.2246 1.04004,-0.2246 l 0.51514,0 0,-0.0684 c -10e-6,-0.13835 -0.0545,-0.23926 -0.16358,-0.30274 -0.10905,-0.0651 -0.27913,-0.0977 -0.51025,-0.0977 -0.18718,0 -0.36133,0.0187 -0.52246,0.0562 -0.16114,0.0374 -0.31088,0.0936 -0.44922,0.16845 l 0,-0.6665 c 0.18717,-0.0456 0.37516,-0.0798 0.56396,-0.10254 0.1888,-0.0244 0.37761,-0.0366 0.56641,-0.0366 0.49316,0 0.84879,0.0977 1.06689,0.29297 0.21973,0.19369 0.32959,0.50944 0.32959,0.94726"
         style="font-size:5px;font-variant:normal;font-weight:bold;font-stretch:normal;fill:#ffffff;font-family:Sans;-inkscape-font-specification:Sans Bold"
         id="path4549" />
      <path
         inkscape:connector-curvature="0"
         d="m 522.02917,950.63251 c -0.0765,-0.0358 -0.15299,-0.0619 -0.22949,-0.0781 -0.0749,-0.0179 -0.15055,-0.0269 -0.22705,-0.0269 -0.22461,0 -0.39795,0.0724 -0.52002,0.21728 -0.12044,0.14323 -0.18066,0.34912 -0.18066,0.61768 l 0,1.25976 -0.87403,0 0,-2.73437 0.87403,0 0,0.44922 c 0.1123,-0.17904 0.24088,-0.30925 0.38574,-0.39063 0.14648,-0.083 0.32145,-0.12451 0.5249,-0.12451 0.0293,0 0.061,0.002 0.0952,0.005 0.0342,0.002 0.0838,0.007 0.14892,0.0147 l 0.002,0.79102"
         style="font-size:5px;font-variant:normal;font-weight:bold;font-stretch:normal;fill:#ffffff;font-family:Sans;-inkscape-font-specification:Sans Bold"
         id="path4551" />
      <path
         inkscape:connector-curvature="0"
         d="m 523.34265,952.22675 0,1.43554 -0.87402,0 0,-3.77441 0.87402,0 0,0.40039 c 0.12044,-0.1595 0.25391,-0.27669 0.40039,-0.35156 0.14648,-0.0765 0.31494,-0.11475 0.50537,-0.11475 0.33691,0 0.61361,0.13428 0.83008,0.40283 0.21647,0.26693 0.3247,0.61117 0.32471,1.03272 -10e-6,0.42155 -0.10824,0.7666 -0.32471,1.03515 -0.21647,0.26693 -0.49317,0.40039 -0.83008,0.40039 -0.19043,0 -0.35889,-0.0374 -0.50537,-0.1123 -0.14648,-0.0765 -0.27995,-0.1945 -0.40039,-0.354 m 0.58106,-1.77002 c -0.18718,0 -0.33122,0.0692 -0.43213,0.20752 -0.0993,0.13672 -0.14893,0.33447 -0.14893,0.59326 0,0.25879 0.0496,0.45736 0.14893,0.5957 0.10091,0.13672 0.24495,0.20508 0.43213,0.20508 0.18717,0 0.32958,-0.0684 0.42724,-0.20508 0.0993,-0.13672 0.14893,-0.33528 0.14893,-0.5957 0,-0.26042 -0.0496,-0.45899 -0.14893,-0.59571 -0.0977,-0.13671 -0.24007,-0.20507 -0.42724,-0.20507"
         style="font-size:5px;font-variant:normal;font-weight:bold;font-stretch:normal;fill:#ffffff;font-family:Sans;-inkscape-font-specification:Sans Bold"
         id="path4553" />
      <path
         inkscape:connector-curvature="0"
         d="m 527.35388,950.44696 c -0.19368,0 -0.3418,0.07 -0.44433,0.20996 -0.10092,0.13835 -0.15137,0.33854 -0.15137,0.60059 0,0.26204 0.0504,0.46305 0.15137,0.60302 0.10253,0.13835 0.25065,0.20752 0.44433,0.20752 0.19043,0 0.3361,-0.0692 0.43701,-0.20752 0.10091,-0.13997 0.15137,-0.34098 0.15137,-0.60302 0,-0.26205 -0.0505,-0.46224 -0.15137,-0.60059 -0.10091,-0.13997 -0.24658,-0.20996 -0.43701,-0.20996 m 0,-0.625 c 0.47038,0 0.8374,0.12696 1.10108,0.38086 0.26529,0.25391 0.39794,0.60547 0.39795,1.05469 -10e-6,0.44922 -0.13266,0.80078 -0.39795,1.05468 -0.26368,0.25391 -0.6307,0.38086 -1.10108,0.38086 -0.472,0 -0.84147,-0.12695 -1.1084,-0.38086 -0.2653,-0.2539 -0.39795,-0.60546 -0.39795,-1.05468 0,-0.44922 0.13265,-0.80078 0.39795,-1.05469 0.26693,-0.2539 0.6364,-0.38086 1.1084,-0.38086"
         style="font-size:5px;font-variant:normal;font-weight:bold;font-stretch:normal;fill:#ffffff;font-family:Sans;-inkscape-font-specification:Sans Bold"
         id="path4555" />
      <path
         inkscape:connector-curvature="0"
         d="m 530.79138,950.44696 c -0.19368,0 -0.3418,0.07 -0.44433,0.20996 -0.10092,0.13835 -0.15137,0.33854 -0.15137,0.60059 0,0.26204 0.0504,0.46305 0.15137,0.60302 0.10253,0.13835 0.25065,0.20752 0.44433,0.20752 0.19043,0 0.3361,-0.0692 0.43701,-0.20752 0.10091,-0.13997 0.15137,-0.34098 0.15137,-0.60302 0,-0.26205 -0.0505,-0.46224 -0.15137,-0.60059 -0.10091,-0.13997 -0.24658,-0.20996 -0.43701,-0.20996 m 0,-0.625 c 0.47038,0 0.8374,0.12696 1.10108,0.38086 0.26529,0.25391 0.39794,0.60547 0.39795,1.05469 -10e-6,0.44922 -0.13266,0.80078 -0.39795,1.05468 -0.26368,0.25391 -0.6307,0.38086 -1.10108,0.38086 -0.472,0 -0.84147,-0.12695 -1.1084,-0.38086 -0.2653,-0.2539 -0.39795,-0.60546 -0.39795,-1.05468 0,-0.44922 0.13265,-0.80078 0.39795,-1.05469 0.26693,-0.2539 0.6364,-0.38086 1.1084,-0.38086"
         style="font-size:5px;font-variant:normal;font-weight:bold;font-stretch:normal;fill:#ffffff;font-family:Sans;-inkscape-font-specification:Sans Bold"
         id="path4557" />
      <path
         inkscape:connector-curvature="0"
         d="m 532.92761,948.82343 0.87403,0 0,3.79882 -0.87403,0 0,-3.79882"
         style="font-size:5px;font-variant:normal;font-weight:bold;font-stretch:normal;fill:#ffffff;font-family:Sans;-inkscape-font-specification:Sans Bold"
         id="path4559" />
    </g>
  </g>
</svg>
