<?xml version="1.0" encoding="UTF-8" standalone="no"?>
<!-- Generator: Adobe Illustrator 15.0.2, SVG Export Plug-In . SVG Version: 6.00 Build 0)  -->

<svg
   xmlns:dc="http://purl.org/dc/elements/1.1/"
   xmlns:cc="http://creativecommons.org/ns#"
   xmlns:rdf="http://www.w3.org/1999/02/22-rdf-syntax-ns#"
   xmlns:svg="http://www.w3.org/2000/svg"
   xmlns="http://www.w3.org/2000/svg"
   xmlns:sodipodi="http://sodipodi.sourceforge.net/DTD/sodipodi-0.dtd"
   xmlns:inkscape="http://www.inkscape.org/namespaces/inkscape"
   version="1.1"
   id="iconen"
   x="0px"
   y="0px"
   width="25"
   height="25"
   viewBox="0 0 25 25"
   enable-background="new 0 0 28.347 28.347"
   xml:space="preserve"
   inkscape:version="0.48.0 r9654"
   sodipodi:docname="hoogtemerk.svg"><metadata
   id="metadata19"><rdf:RDF><cc:Work
       rdf:about=""><dc:format>image/svg+xml</dc:format><dc:type
         rdf:resource="http://purl.org/dc/dcmitype/StillImage" /></cc:Work></rdf:RDF></metadata><defs
   id="defs17" /><sodipodi:namedview
   pagecolor="#ffffff"
   bordercolor="#666666"
   borderopacity="1"
   objecttolerance="10"
   gridtolerance="10"
   guidetolerance="10"
   inkscape:pageopacity="0"
   inkscape:pageshadow="2"
   inkscape:window-width="724"
   inkscape:window-height="480"
   id="namedview15"
   showgrid="false"
   inkscape:zoom="8.3668984"
   inkscape:cx="14.1735"
   inkscape:cy="14.1735"
   inkscape:window-x="0"
   inkscape:window-y="24"
   inkscape:window-maximized="0"
   inkscape:current-layer="iconen" />


<g
   id="g2996"
   transform="matrix(1.3026235,0,0,1.3024114,-5.8711316,-0.72119674)"><path
     style="fill:#007bc7;stroke:#ffffff;stroke-width:0.767744"
     inkscape:connector-curvature="0"
     id="path3"
     d="m 23.315,17.521 c 0,1.018 -0.824,1.844 -1.844,1.844 H 6.733 c -1.018,0 -1.842,-0.826 -1.842,-1.844 V 2.7819999 c 0,-1.018 0.824,-1.84400002 1.842,-1.84400002 h 14.738 c 1.02,0 1.844,0.82600002 1.844,1.84400002 V 17.521 z" /><g
     transform="translate(0,-3.3470001)"
     id="g5">
	<path
   style="fill:#ffffff"
   inkscape:connector-curvature="0"
   id="path7"
   d="m 10.626,20.407 -1.848,-3.07 c -0.239,-0.392 -0.432,-0.775 -0.6,-1.136 0.032,0.528 0.048,1.623 0.048,2.391 v 1.815 H 7.38 V 15.01 h 1.143 l 1.783,2.942 c 0.24,0.4 0.456,0.832 0.656,1.224 -0.032,-0.615 -0.057,-1.774 -0.057,-2.566 v -1.6 h 0.848 v 5.397 h -1.127 z" />
	<path
   style="fill:#ffffff"
   inkscape:connector-curvature="0"
   id="path9"
   d="M 16.329,20.407 15.914,19.216 H 13.73 l -0.415,1.191 h -0.88 l 1.936,-5.397 h 0.967 l 1.959,5.397 h -0.968 z m -1.263,-3.582 c -0.104,-0.28 -0.176,-0.536 -0.24,-0.832 H 14.81 c -0.057,0.272 -0.145,0.568 -0.248,0.856 l -0.607,1.671 h 1.727 l -0.616,-1.695 z" />
	<path
   style="fill:#ffffff"
   inkscape:connector-curvature="0"
   id="path11"
   d="m 19.242,18.433 c -0.119,0 -0.264,0 -0.399,-0.017 v 1.991 H 17.972 V 15.01 c 0.415,-0.016 0.879,-0.031 1.383,-0.031 1.279,0 1.983,0.623 1.983,1.623 0,1.046 -0.84,1.831 -2.096,1.831 z m 0.049,-2.744 c -0.168,0 -0.305,0 -0.448,0.017 v 1.975 c 0.12,0.016 0.256,0.032 0.384,0.032 0.728,-0.008 1.207,-0.408 1.207,-1.04 0,-0.615 -0.36,-0.984 -1.143,-0.984 z" />
</g><circle
     transform="translate(0,-3.3470001)"
     style="fill:#ffffff"
     sodipodi:ry="2.835"
     sodipodi:rx="2.835"
     sodipodi:cy="9.5620003"
     sodipodi:cx="14.104"
     id="circle13"
     r="2.835"
     cy="9.5620003"
     cx="14.104"
     d="m 16.939,9.5620003 c 0,1.5657277 -1.269273,2.8349997 -2.835,2.8349997 -1.565727,0 -2.835,-1.269272 -2.835,-2.8349997 0,-1.5657273 1.269273,-2.8350001 2.835,-2.8350001 1.565727,0 2.835,1.2692728 2.835,2.8350001 z" /></g>
</svg>