<?xml version="1.0" encoding="UTF-8" standalone="no"?>
<svg xmlns:rdf="http://www.w3.org/1999/02/22-rdf-syntax-ns#" xmlns="http://www.w3.org/2000/svg" xmlns:cc="http://creativecommons.org/ns#" xmlns:dc="http://purl.org/dc/elements/1.1/" version="1.1" xml:space="preserve" height="25" width="25" enable-background="new 0 0 28.347 28.347" y="0px" x="0px" viewBox="0 0 25 25">
  <metadata>
    <rdf:RDF>
      <cc:Work rdf:about="">
        <dc:format>image/svg+xml</dc:format>
        <dc:type rdf:resource="http://purl.org/dc/dcmitype/StillImage"/>
        <dc:title/>
      </cc:Work>
    </rdf:RDF>
  </metadata>
  <g transform="matrix(1.2870013,0,0,1.2868688,-5.9388675,-4.4262369)">
    <path stroke="#FFF" stroke-width="0.77704" d="m23.428,20.634c0,1.018-0.824,1.844-1.843,1.844h-14.739c-1.018,0-1.843-0.826-1.843-1.844v-14.739c0-1.018,0.825-1.844,1.843-1.844h14.739c1.019,0,1.843,0.826,1.843,1.844v14.739z" fill="#a90061"/>
    <path d="M16.63,15.766c0.235-1.815-0.322-3.521-1.407-4.836l-7.646,4.836h9.053z" fill="#FFF"/>
    <path stroke="#FFF" stroke-width="0.77704" d="m17.199,8.584c2.311,2.379,3.239,5.836,2.407,9.063" fill="none"/>
    <polygon points="17.054,10.62,17.325,8.76,19.076,8.074,14.949,6.871" fill="#FFF"/>
    <polygon points="19.732,17.159,21.341,17.086,18.728,19.86,18.564,16.053" fill="#FFF"/>
  </g>
</svg>
