<?xml version="1.0" encoding="UTF-8" standalone="no"?>
<svg xmlns:rdf="http://www.w3.org/1999/02/22-rdf-syntax-ns#" xmlns="http://www.w3.org/2000/svg" xmlns:cc="http://creativecommons.org/ns#" xmlns:dc="http://purl.org/dc/elements/1.1/" version="1.1" xml:space="preserve" height="25" width="25" enable-background="new 0 0 28.347 28.347" y="0px" x="0px" viewBox="0 0 25 25">
  <metadata>
    <rdf:RDF>
      <cc:Work rdf:about="">
        <dc:format>image/svg+xml</dc:format>
        <dc:type rdf:resource="http://purl.org/dc/dcmitype/StillImage"/>
        <dc:title/>
      </cc:Work>
    </rdf:RDF>
  </metadata>
  <g transform="matrix(1.3025528,0,0,1.3024114,-5.7613713,-5.4567646)">
    <path stroke="#FFF" stroke-width="0.76776487" d="m23.232,21.157c0,1.018-0.824,1.844-1.844,1.844h-14.738c-1.018,0-1.843-0.826-1.843-1.844v-14.739c0-1.018,0.825-1.844,1.843-1.844h14.738c1.02,0,1.844,0.826,1.844,1.844v14.739z" fill="#e17000"/>
    <path d="m19.06,7.185c-0.27-0.014-6.904,0-6.984,0-0.045-0.183-0.117-0.341-0.221-0.511-0.535-0.863-1.668-1.131-2.529-0.598-0.866,0.534-1.132,1.666-0.598,2.529s1.678,1.15,2.527,0.598c0.602-0.391,0.68-0.765,0.82-1.119h4.596v1.617h2.296v-1.617s-0.195-0.005,0.092,0c0.285,0.006,0.527-0.122,0.527-0.45,0.001-0.372-0.257-0.435-0.526-0.449zm-8.743,1.715c-0.215,0-0.553-0.128-0.553-0.128,0.107-0.268,0.242-0.705,0.229-1.205-0.012-0.393-0.24-1.047-0.24-1.047,0.17-0.086,0.361-0.135,0.564-0.135,0.695,0,1.258,0.564,1.258,1.257,0,0.696-0.562,1.258-1.258,1.258z" fill="#FFF"/>
    <path d="m18.843,15.386c-0.311,0-0.605,0.062-0.885,0.155l-0.955-1.912,0.416-0.889,0.588-0.002c0.166,0,0.299-0.135,0.299-0.301,0-0.165-0.135-0.299-0.301-0.299l-1.906,0.007c-0.166,0-0.301,0.135-0.299,0.301,0,0.165,0.135,0.299,0.299,0.299h0.002l0.654-0.002-0.287,0.613h-5.068l0.426-1.128h1.064c0.166,0,0.299-0.134,0.299-0.3s-0.133-0.3-0.299-0.3h-1.271c-0.125,0-0.236,0.077-0.279,0.194l-1.416,3.748c-0.234-0.06-0.474-0.104-0.728-0.104-1.566,0-2.834,1.27-2.834,2.835s1.268,2.835,2.834,2.835,2.836-1.27,2.836-2.835c0-1.101-0.635-2.043-1.551-2.514l0.402-1.062,3.477,3.587c0.006,0.007,0.018,0.004,0.025,0.011,0.053,0.047,0.117,0.08,0.189,0.08h1.451c0.096,1.479,1.312,2.653,2.816,2.653,1.566,0,2.836-1.27,2.836-2.834,0.002-1.567-1.268-2.836-2.834-2.836zm-7.418,2.915c0,1.23-0.998,2.229-2.229,2.229s-2.229-0.998-2.229-2.229,0.998-2.229,2.229-2.229c0.178,0,0.348,0.026,0.514,0.065l-0.814,2.158c-0.059,0.154,0.02,0.328,0.176,0.386,0.033,0.014,0.07,0.02,0.105,0.02,0.121,0,0.234-0.074,0.279-0.194l0.811-2.149c0.687,0.378,1.158,1.102,1.158,1.943zm3.064-0.72-3.371-3.478,0.055-0.147h5.014l-1.698,3.625zm2.188-3.259,0.732,1.466c-0.719,0.425-1.23,1.153-1.359,2.015h-1.002l1.629-3.481zm1.004,2.006,0.736,1.475h-1.76c0.119-0.625,0.5-1.153,1.024-1.475zm1.162,4.122c-1.168,0-2.117-0.903-2.209-2.048h2.27c0.104,0,0.199-0.054,0.254-0.142,0.055-0.089,0.061-0.199,0.014-0.292l-0.939-1.881c0.195-0.056,0.398-0.096,0.611-0.096,1.232,0,2.23,0.998,2.23,2.229-0.001,1.232-0.999,2.23-2.231,2.23z" fill="#FFF"/>
    <path style="color:#000000;enable-background:accumulate;" d="m28.934,7.8492c0,1.0699-0.86736,1.9373-1.9373,1.9373s-1.9373-0.86736-1.9373-1.9373,0.86736-1.9373,1.9373-1.9373,1.9373,0.86736,1.9373,1.9373z" fill-rule="nonzero" transform="matrix(0.64522957,0,0,0.64522957,-7.105395,2.5754032)" fill="#e17000"/>
  </g>
</svg>
