<?xml version="1.0" encoding="UTF-8" standalone="no"?>
<svg xmlns:rdf="http://www.w3.org/1999/02/22-rdf-syntax-ns#" xmlns="http://www.w3.org/2000/svg" xmlns:cc="http://creativecommons.org/ns#" xmlns:dc="http://purl.org/dc/elements/1.1/" height="25" width="25" version="1.1">
  <metadata>
    <rdf:RDF>
      <cc:Work rdf:about="">
        <dc:format>image/svg+xml</dc:format>
        <dc:type rdf:resource="http://purl.org/dc/dcmitype/StillImage"/>
        <dc:title/>
      </cc:Work>
    </rdf:RDF>
  </metadata>
  <g transform="translate(0,-1027.3622)">
    <g transform="translate(-513.4338,39.387083)">
      <path stroke-linejoin="miter" style="enable-background:accumulate;color:#000000;" d="m537.93,1010.1c0,1.3258-1.0734,2.4015-2.402,2.4015h-19.198c-1.3261,0-2.3994-1.0757-2.3994-2.4015v-19.196c0-1.3258,1.0734-2.4015,2.3994-2.4015h19.198c1.3287,0,2.402,1.0757,2.402,2.4015v19.196z" fill-rule="nonzero" stroke-dashoffset="0" stroke="#FFF" stroke-linecap="butt" stroke-miterlimit="4" stroke-dasharray="none" stroke-width="0.99999994" fill="#d52b1e"/>
      <path stroke-linejoin="round" d="m535.13,1002.8,0,4.7113-19.401,0" stroke="#FFF" stroke-width="1.93045223" fill="none"/>
      <path style="enable-background:accumulate;color:#000000;" d="M517.34,1002.8c0,0.7-0.6,1.2-1.34,1.2s-1.34-0.5-1.34-1.2c0-0.6,0.6-1.1,1.34-1.1s1.34,0.5,1.34,1.1z" fill-rule="nonzero" transform="matrix(0.7457143,0,0,0.87000001,132.2143,131.53004)" fill="#FFF"/>
      <path style="enable-background:accumulate;color:#000000;" d="M517.34,1002.8c0,0.7-0.6,1.2-1.34,1.2s-1.34-0.5-1.34-1.2c0-0.6,0.6-1.1,1.34-1.1s1.34,0.5,1.34,1.1z" fill-rule="nonzero" transform="matrix(0.7457143,0,0,0.87000001,135.2143,131.43425)" fill="#FFF"/>
      <path style="enable-background:accumulate;color:#000000;" d="M517.34,1002.8c0,0.7-0.6,1.2-1.34,1.2s-1.34-0.5-1.34-1.2c0-0.6,0.6-1.1,1.34-1.1s1.34,0.5,1.34,1.1z" fill-rule="nonzero" transform="matrix(0.7457143,0,0,0.87000001,138.2143,131.43425)" fill="#FFF"/>
      <path style="enable-background:accumulate;color:#000000;" d="M517.34,1002.8c0,0.7-0.6,1.2-1.34,1.2s-1.34-0.5-1.34-1.2c0-0.6,0.6-1.1,1.34-1.1s1.34,0.5,1.34,1.1z" fill-rule="nonzero" transform="matrix(0.7457143,0,0,0.87000001,141.2143,131.43425)" fill="#FFF"/>
      <path style="enable-background:accumulate;color:#000000;" d="M517.34,1002.8c0,0.7-0.6,1.2-1.34,1.2s-1.34-0.5-1.34-1.2c0-0.6,0.6-1.1,1.34-1.1s1.34,0.5,1.34,1.1z" fill-rule="nonzero" transform="matrix(0.7457143,0,0,0.87000001,144.2143,131.43425)" fill="#FFF"/>
      <path style="enable-background:accumulate;color:#000000;" d="M517.34,1002.8c0,0.7-0.6,1.2-1.34,1.2s-1.34-0.5-1.34-1.2c0-0.6,0.6-1.1,1.34-1.1s1.34,0.5,1.34,1.1z" fill-rule="nonzero" transform="matrix(0.7457143,0,0,0.87000001,147.2143,131.43425)" fill="#FFF"/>
    </g>
  </g>
</svg>
