<?xml version="1.0" encoding="UTF-8" standalone="no"?>
<!-- Created with Inkscape (http://www.inkscape.org/) -->
<svg xmlns:rdf="http://www.w3.org/1999/02/22-rdf-syntax-ns#" xmlns="http://www.w3.org/2000/svg" height="25" width="25" version="1.1" xmlns:cc="http://creativecommons.org/ns#" xmlns:dc="http://purl.org/dc/elements/1.1/">
	<metadata>
		<rdf:RDF>
			<cc:Work rdf:about="">
				<dc:format>image/svg+xml</dc:format>
				<dc:type rdf:resource="http://purl.org/dc/dcmitype/StillImage"/>
				<dc:title/>
			</cc:Work>
		</rdf:RDF>
	</metadata>
	<g transform="translate(0.0045,-1027.3705)">
		<g transform="translate(-361.78575,513.21426)">
			<path d="m386.14,536.13c0,1.31-1.0605,2.373-2.3732,2.373h-18.968c-1.3102,0-2.3719-1.063-2.3719-2.373v-18.967c0-1.31,1.0618-2.373,2.3719-2.373h18.968c1.3128,0,2.3732,1.063,2.3732,2.373v18.967z" stroke="#FFF" stroke-width="1.28693509" fill="#39870c"/>
			<g transform="translate(11.262003,424.94378)" fill="#FFF">
				<path d="m371.05,108.07-3.7532-4.3446c-0.0431-0.0685-0.50739-0.81975-0.50739-1.3886,0-0.59079,0.49183-1.6917,0.50136-1.713,0.008-0.007,0.017-0.0138,0.0251-0.0215l3.1617-3.0211c0.33628-0.31902,0.35029-0.85025,0.0313-1.1865l-0.0642-0.06758c-0.31902-0.33628-0.85025-0.35032-1.1865-0.0313l-2.9685,2.8364c-0.0574-0.01477-0.11597-0.02265-0.17525-0.02265h-1.1892l-2.3222-3.1987c-0.26798-0.37821-0.79182-0.46765-1.17-0.19972l-0.076,0.05387c-0.37825,0.26793-0.46765,0.79178-0.19972,1.17l2.4261,3.3417v3.9762l-1.91,5.3376c-0.15617,0.43638,0.0711,0.91681,0.50744,1.073l0.0877,0.0314c0.43642,0.15618,0.91681-0.0711,1.073-0.50743l1.8584-5.1932h0.85189l3.6575,4.2339c0.30299,0.35074,0.83304,0.38943,1.1838,0.0864l0.0705-0.0609c0.3507-0.30286,0.38939-0.83299,0.0864-1.1837z"/>
				<circle d="m 320.427,143.92999 c 0,19.32997 -15.67003,35 -35,35 -19.32996,0 -35,-15.67003 -35,-35 0,-19.32996 15.67004,-35 35,-35 19.32997,0 35,15.67004 35,35 z" cx="285.43" cy="143.93" transform="matrix(0.0421875,0,0,0.0421875,353.83437,90.856289)" r="35"/>
				<circle d="m 320.427,143.92999 c 0,19.32997 -15.67003,35 -35,35 -19.32996,0 -35,-15.67003 -35,-35 0,-19.32996 15.67004,-35 35,-35 19.32997,0 35,15.67004 35,35 z" transform="matrix(0.05104688,0,0,0.05104688,344.77434,101.55524)" cy="143.93" cx="285.43" r="35"/>
				<path d="m358.41,93.518c-0.95222-0.9522-2.2758-1.1473-3.0833-0.36496-0.87987,0.85244-0.58726,2.1311,0.36497,3.0833,0.74574,0.74574,1.6356,1.1261,2.4399,0.80262,0.33113,0.11331,0.89177,0.344,1.4333,0.7465-0.0181,0.0854,0.006,0.17791,0.0722,0.24424l1.6109,1.6109c0.10424,0.10425,0.27328,0.10425,0.37755,0.00001l0.18876-0.18877c0.10423-0.10425,0.10423-0.27328,0-0.37755l-1.6109-1.6109c-0.0663-0.0663-0.15881-0.0903-0.24422-0.0722-0.40417-0.54381-0.63509-1.1068-0.7479-1.4374,0.31435-0.79927-0.0583-1.6929-0.80124-2.4358zm1.048,3.7664c-0.35341-0.19318-0.68872-0.34809-0.98509-0.47037,0.0909-0.0754,0.18078-0.15682,0.26932-0.24536,0.0886-0.0886,0.16997-0.17858,0.24518-0.2698,0.12238,0.29647,0.27732,0.63193,0.47059,0.98553z"/>
			</g>
		</g>
	</g>
</svg>
