<?xml version="1.0" encoding="UTF-8" standalone="no"?>
<!-- Generator: Adobe Illustrator 15.0.2, SVG Export Plug-In . SVG Version: 6.00 Build 0)  -->
<svg xmlns:rdf="http://www.w3.org/1999/02/22-rdf-syntax-ns#" xmlns="http://www.w3.org/2000/svg" enable-background="new 0 0 28.347 28.347" xml:space="preserve" viewBox="0 0 25 25" version="1.1" y="0px" x="0px" xmlns:cc="http://creativecommons.org/ns#" xmlns:dc="http://purl.org/dc/elements/1.1/"><metadata><rdf:RDF><cc:Work rdf:about=""><dc:format>image/svg+xml</dc:format><dc:type rdf:resource="http://purl.org/dc/dcmitype/StillImage"/><dc:title/></cc:Work></rdf:RDF></metadata>
<g transform="matrix(1.3025528,0,0,1.3023408,-6.0166717,-4.9485302)">
	<path d="m23.428,20.768c0,1.018-0.824,1.844-1.843,1.844h-14.739c-1.018,0-1.843-0.826-1.843-1.844v-14.74c0-1.018,0.825-1.844,1.843-1.844h14.739c1.019,0,1.843,0.826,1.843,1.844v14.74z" stroke="#FFF" stroke-width="0.76778567" fill="#673327"/>
	<path fill="#FFF" d="m21.302,13.398c0,2.731-3.183,4.96-7.087,4.96-3.902,0-7.086-2.229-7.086-4.96,0-2.733,3.184-4.962,7.086-4.962,3.904,0.001,7.087,2.229,7.087,4.962zm-2.793-0.001c0-0.414-0.336-0.75-0.75-0.75h-7.087c-0.414,0-0.75,0.336-0.75,0.75s0.336,0.75,0.75,0.75h7.087c0.414,0,0.75-0.335,0.75-0.75z"/>
</g>
</svg>
