<?xml version="1.0" encoding="UTF-8" standalone="no"?>
<svg xmlns:rdf="http://www.w3.org/1999/02/22-rdf-syntax-ns#" xmlns="http://www.w3.org/2000/svg" xmlns:cc="http://creativecommons.org/ns#" xmlns:dc="http://purl.org/dc/elements/1.1/" height="25" width="25" version="1.1">
  <metadata>
    <rdf:RDF>
      <cc:Work rdf:about="">
        <dc:format>image/svg+xml</dc:format>
        <dc:type rdf:resource="http://purl.org/dc/dcmitype/StillImage"/>
        <dc:title/>
      </cc:Work>
    </rdf:RDF>
  </metadata>
  <g transform="translate(0,-1027.3622)">
    <path d="m24.5,1049.5c0,1.3258-1.0733,2.4016-2.402,2.4016h-19.197c-1.326,0-2.4006-1.0758-2.4006-2.4016v-19.197c0-1.3258,1.0746-2.4016,2.4006-2.4016h19.197c1.3286,0,2.402,1.0758,2.402,2.4016v19.197z" stroke="#FFF" stroke-width="1" fill="#535353"/>
    <path d="m7.0991,1030.7,5.6162,0c1.6699,0.0001,2.9502,0.3721,3.8408,1.1163,0.89647,0.7383,1.3447,1.7929,1.3447,3.164-0.00001,1.377-0.44825,2.4375-1.3447,3.1817-0.89064,0.7382-2.1709,1.1074-3.8408,1.1074h-2.2324v4.5527h-3.3838v-13.122m3.3838,2.4522,0,3.665,1.8721,0c0.65625,0,1.1631-0.1582,1.5205-0.4746,0.35741-0.3222,0.53613-0.7763,0.53613-1.3623,0-0.5859-0.17872-1.0371-0.53613-1.3535-0.35743-0.3164-0.86426-0.4746-1.5205-0.4746h-1.8721" fill="#FFF"/>
    <g style="letter-spacing:0px;word-spacing:0px;" font-weight="normal" transform="translate(-511.12341,96.697903)" font-size="40px" font-style="normal" font-family="Sans" line-height="125%" fill="#FFF">
      <path d="m515.86,949.97,0,0.71289c-0.11882-0.0814-0.23845-0.1416-0.35889-0.18067-0.11881-0.0391-0.24251-0.0586-0.37109-0.0586-0.24414,0-0.43457,0.0716-0.57129,0.21484-0.13509,0.14161-0.20264,0.34018-0.20264,0.59571s0.0675,0.45491,0.20264,0.59814c0.13672,0.1416,0.32715,0.2124,0.57129,0.2124,0.13672,0,0.26611-0.0203,0.38818-0.061,0.1237-0.0407,0.23763-0.10091,0.3418-0.18067v0.71534c-0.13672,0.0504-0.27588,0.0879-0.41748,0.1123-0.13998,0.026-0.28076,0.0391-0.42236,0.0391-0.49317,0-0.87891-0.12614-1.1572-0.37841-0.27832-0.25391-0.41748-0.60629-0.41748-1.0571,0-0.45085,0.13916-0.80241,0.41748-1.0547,0.27832-0.2539,0.66406-0.38086,1.1572-0.38086,0.14322,0,0.28401,0.013,0.42236,0.0391,0.13997,0.0244,0.27913,0.0618,0.41748,0.11231"/>
      <path d="m517.84,951.39c-0.18229,0.00001-0.31982,0.0309-0.41259,0.0928-0.0911,0.0619-0.13672,0.15299-0.13672,0.27344,0,0.11067,0.0366,0.19775,0.10986,0.26123,0.0749,0.0619,0.17822,0.0928,0.31006,0.0928,0.16439,0,0.30273-0.0586,0.41504-0.17578,0.1123-0.11882,0.16845-0.26693,0.16846-0.44434v-0.1001h-0.45411m1.3354-0.32959,0,1.5601-0.88134,0,0-0.40527c-0.11719,0.16602-0.24903,0.28727-0.39551,0.36377-0.14649,0.0749-0.32471,0.1123-0.53467,0.1123-0.2832,0-0.51351-0.0822-0.69092-0.24658-0.17578-0.16601-0.26367-0.38086-0.26367-0.64453,0-0.32064,0.10986-0.55582,0.32959-0.70557,0.22135-0.14973,0.56803-0.2246,1.04-0.2246h0.51514v-0.0684c-0.00001-0.13835-0.0545-0.23926-0.16358-0.30274-0.10905-0.0651-0.27913-0.0977-0.51025-0.0977-0.18718,0-0.36133,0.0187-0.52246,0.0562-0.16114,0.0374-0.31088,0.0936-0.44922,0.16845v-0.6665c0.18717-0.0456,0.37516-0.0798,0.56396-0.10254,0.1888-0.0244,0.37761-0.0366,0.56641-0.0366,0.49316,0,0.84879,0.0977,1.0669,0.29297,0.21973,0.19369,0.32959,0.50944,0.32959,0.94726"/>
      <path d="m522.03,950.63c-0.0765-0.0358-0.15299-0.0619-0.22949-0.0781-0.0749-0.0179-0.15055-0.0269-0.22705-0.0269-0.22461,0-0.39795,0.0724-0.52002,0.21728-0.12044,0.14323-0.18066,0.34912-0.18066,0.61768v1.2598h-0.87403v-2.7344h0.87403v0.44922c0.1123-0.17904,0.24088-0.30925,0.38574-0.39063,0.14648-0.083,0.32145-0.12451,0.5249-0.12451,0.0293,0,0.061,0.002,0.0952,0.005,0.0342,0.002,0.0838,0.007,0.14892,0.0147l0.002,0.79102"/>
      <path d="m523.34,952.23,0,1.4355-0.87402,0,0-3.7744,0.87402,0,0,0.40039c0.12044-0.1595,0.25391-0.27669,0.40039-0.35156,0.14648-0.0765,0.31494-0.11475,0.50537-0.11475,0.33691,0,0.61361,0.13428,0.83008,0.40283,0.21647,0.26693,0.3247,0.61117,0.32471,1.0327-0.00001,0.42155-0.10824,0.7666-0.32471,1.0352-0.21647,0.26693-0.49317,0.40039-0.83008,0.40039-0.19043,0-0.35889-0.0374-0.50537-0.1123-0.14648-0.0765-0.27995-0.1945-0.40039-0.354m0.58106-1.77c-0.18718,0-0.33122,0.0692-0.43213,0.20752-0.0993,0.13672-0.14893,0.33447-0.14893,0.59326s0.0496,0.45736,0.14893,0.5957c0.10091,0.13672,0.24495,0.20508,0.43213,0.20508,0.18717,0,0.32958-0.0684,0.42724-0.20508,0.0993-0.13672,0.14893-0.33528,0.14893-0.5957s-0.0496-0.45899-0.14893-0.59571c-0.0977-0.13671-0.24007-0.20507-0.42724-0.20507"/>
      <path d="m527.35,950.45c-0.19368,0-0.3418,0.07-0.44433,0.20996-0.10092,0.13835-0.15137,0.33854-0.15137,0.60059,0,0.26204,0.0504,0.46305,0.15137,0.60302,0.10253,0.13835,0.25065,0.20752,0.44433,0.20752,0.19043,0,0.3361-0.0692,0.43701-0.20752,0.10091-0.13997,0.15137-0.34098,0.15137-0.60302,0-0.26205-0.0505-0.46224-0.15137-0.60059-0.10091-0.13997-0.24658-0.20996-0.43701-0.20996m0-0.625c0.47038,0,0.8374,0.12696,1.1011,0.38086,0.26529,0.25391,0.39794,0.60547,0.39795,1.0547-0.00001,0.44922-0.13266,0.80078-0.39795,1.0547-0.26368,0.25391-0.6307,0.38086-1.1011,0.38086-0.472,0-0.84147-0.12695-1.1084-0.38086-0.2653-0.2539-0.39795-0.60546-0.39795-1.0547,0-0.44922,0.13265-0.80078,0.39795-1.0547,0.26693-0.2539,0.6364-0.38086,1.1084-0.38086"/>
      <path d="m530.79,950.45c-0.19368,0-0.3418,0.07-0.44433,0.20996-0.10092,0.13835-0.15137,0.33854-0.15137,0.60059,0,0.26204,0.0504,0.46305,0.15137,0.60302,0.10253,0.13835,0.25065,0.20752,0.44433,0.20752,0.19043,0,0.3361-0.0692,0.43701-0.20752,0.10091-0.13997,0.15137-0.34098,0.15137-0.60302,0-0.26205-0.0505-0.46224-0.15137-0.60059-0.10091-0.13997-0.24658-0.20996-0.43701-0.20996m0-0.625c0.47038,0,0.8374,0.12696,1.1011,0.38086,0.26529,0.25391,0.39794,0.60547,0.39795,1.0547-0.00001,0.44922-0.13266,0.80078-0.39795,1.0547-0.26368,0.25391-0.6307,0.38086-1.1011,0.38086-0.472,0-0.84147-0.12695-1.1084-0.38086-0.2653-0.2539-0.39795-0.60546-0.39795-1.0547,0-0.44922,0.13265-0.80078,0.39795-1.0547,0.26693-0.2539,0.6364-0.38086,1.1084-0.38086"/>
      <path d="m532.93,948.82,0.87403,0,0,3.7988-0.87403,0,0-3.7988"/>
    </g>
  </g>
</svg>
