<?xml version="1.0" encoding="UTF-8" standalone="no"?>
<svg xmlns:rdf="http://www.w3.org/1999/02/22-rdf-syntax-ns#" xmlns="http://www.w3.org/2000/svg" xmlns:cc="http://creativecommons.org/ns#" xmlns:dc="http://purl.org/dc/elements/1.1/" version="1.1" xml:space="preserve" height="25" width="25" enable-background="new 0 0 28.347 28.347" y="0px" x="0px" viewBox="0 0 25 25">
  <metadata>
    <rdf:RDF>
      <cc:Work rdf:about="">
        <dc:format>image/svg+xml</dc:format>
        <dc:type rdf:resource="http://purl.org/dc/dcmitype/StillImage"/>
        <dc:title/>
      </cc:Work>
    </rdf:RDF>
  </metadata>
  <g transform="matrix(1.2870049,0,0,1.2868652,-5.795418,-0.26248567)">
    <path stroke="#FFF" d="m23.428,17.287c0,1.018-0.824,1.844-1.843,1.844h-14.739c-1.018,0-1.843-0.826-1.843-1.844v-14.739c0-1.018,0.825-1.844,1.843-1.844h14.739c1.019,0,1.843,0.826,1.843,1.844v14.739z" fill="#a90061"/>
    <g transform="translate(0,-3.3470001)" fill="#FFF">
      <path d="m14.216,18.417c1.03,0,1.997-0.127,2.834-0.333v-0.388h-0.245l-1.03-8.252s-0.228-0.487-0.406-0.713c-0.17-0.226-0.46-0.413-0.46-0.413v-0.225c0-0.113-0.229-0.226-0.229-0.226s0.52-0.601,0.463-0.901c-0.059-0.301-0.463-0.601-0.639-0.75-0.173-0.152-0.286-0.302-0.286-0.302s-0.118,0.149-0.29,0.302c-0.171,0.149-0.576,0.449-0.634,0.75-0.056,0.301,0.463,0.901,0.463,0.901s-0.233,0.112-0.233,0.226v0.225s-0.287,0.187-0.462,0.413c-0.173,0.225-0.406,0.713-0.406,0.713l-1.029,8.252h-0.247v0.388c0.837,0.206,1.804,0.333,2.836,0.333z"/>
      <path d="m14.216,19.377c-1.015,0-1.97-0.097-2.836-0.265v1.475l0.009,0.042c0.849,0.185,1.81,0.289,2.827,0.289,1.016,0,1.977-0.104,2.825-0.289l0.009-0.042v-1.475c-0.863,0.168-1.819,0.265-2.834,0.265z"/>
    </g>
  </g>
</svg>
