<?xml version="1.0" encoding="UTF-8" standalone="no"?>
<svg xmlns:rdf="http://www.w3.org/1999/02/22-rdf-syntax-ns#" xmlns="http://www.w3.org/2000/svg" xmlns:cc="http://creativecommons.org/ns#" xmlns:dc="http://purl.org/dc/elements/1.1/" version="1.1" xml:space="preserve" height="25" width="25" enable-background="new 0 0 28.347 28.347" y="0px" x="0px" viewBox="0 0 25 25">
  <metadata>
    <rdf:RDF>
      <cc:Work rdf:about="">
        <dc:format>image/svg+xml</dc:format>
        <dc:type rdf:resource="http://purl.org/dc/dcmitype/StillImage"/>
        <dc:title/>
      </cc:Work>
    </rdf:RDF>
  </metadata>
  <g transform="matrix(1.3025528,0,0,1.3024114,-6.2615516,-0.88790542)">
    <path stroke="#FFF" stroke-width="0.76776487" d="m23.616,17.649c0,1.018-0.824,1.844-1.844,1.844h-14.738c-1.018,0-1.843-0.826-1.843-1.844v-14.739c0-1.018,0.825-1.844,1.843-1.844h14.738c1.02,0,1.844,0.826,1.844,1.844v14.739z" fill="#39870c"/>
    <polygon points="12.495,6.127,6.878,9.755,8.194,9.755,8.194,14.138,11.383,14.138,11.383,10.656,13.601,10.656,13.601,14.059,16.792,14.059,16.792,9.755,18.103,9.755" transform="translate(0,-3.3470001)" fill="#FFF"/>
    <g transform="translate(0,-3.3470001)">
      <path stroke="#39870c" stroke-width="1.53552973" d="m20.665,15.95c0.041-0.189,0.064-0.385,0.064-0.585,0-1.526-1.236-2.765-2.764-2.765-1.526,0-2.764,1.238-2.764,2.765,0,0.184,0.021,0.362,0.054,0.536-0.633,0.345-1.068,1.008-1.068,1.779,0,1.123,0.91,2.033,2.033,2.033,0.487,0,0.931-0.176,1.28-0.463v1.854h0.93v-2.063c0.35,0.356,0.832,0.582,1.372,0.582,1.073,0,1.942-0.869,1.942-1.942,0.001-0.761-0.441-1.412-1.079-1.731z" fill="none"/>
      <path d="m20.665,15.95c0.041-0.189,0.064-0.385,0.064-0.585,0-1.526-1.236-2.765-2.764-2.765-1.526,0-2.764,1.238-2.764,2.765,0,0.184,0.021,0.362,0.054,0.536-0.633,0.345-1.068,1.008-1.068,1.779,0,1.123,0.91,2.033,2.033,2.033,0.487,0,0.931-0.176,1.28-0.463v1.854h0.93v-2.063c0.35,0.356,0.832,0.582,1.372,0.582,1.073,0,1.942-0.869,1.942-1.942,0.001-0.761-0.441-1.412-1.079-1.731z" fill="#FFF"/>
    </g>
  </g>
</svg>
