<?xml version="1.0" encoding="UTF-8" standalone="no"?>
<svg xmlns="http://www.w3.org/2000/svg" height="32" width="32" version="1.1">
    <rect height="32" width="32" y="0" x="0" fill="#8ca800"/>
    <path fill="#0084a8" d="m7.1486 5.1406h1.152v3.552c0.7039-0.256 1.2399-0.896 1.6079-1.92 0.2885-0.8 0.4325-1.672 0.4325-2.616h0.984c-0.000007 1.312-0.20801 2.544-0.624 3.696-0.56001 1.472-1.36 2.344-2.4 2.616v5.376h-1.152v-5.4c-1.024-0.30399-1.8-1.184-2.328-2.64-0.416-1.12-0.624-2.336-0.624-3.648h0.936v0.024c-0.000001 0.91201 0.144 1.76 0.432 2.544 0.368 0.99201 0.896 1.632 1.584 1.92v-3.504"/>
    <path fill="#0084a8" d="m22.127 18.641h1.152v3.552c0.704-0.25599 1.24-0.89599 1.608-1.92 0.28799-0.79999 0.43199-1.672 0.432-2.616h0.984c-0.000007 1.312-0.20801 2.544-0.624 3.696-0.56001 1.472-1.36 2.344-2.4 2.616v5.376h-1.152v-5.4c-1.024-0.30399-1.8-1.184-2.328-2.64-0.416-1.12-0.624-2.336-0.624-3.648h0.936v0.024c-0.000001 0.91201 0.144 1.76 0.432 2.544 0.368 0.99201 0.896 1.632 1.584 1.92v-3.504"/>
</svg>
