<?xml version="1.0" encoding="UTF-8" standalone="no"?>
<!-- Created with Inkscape (http://www.inkscape.org/) -->

<svg
   xmlns:dc="http://purl.org/dc/elements/1.1/"
   xmlns:cc="http://creativecommons.org/ns#"
   xmlns:rdf="http://www.w3.org/1999/02/22-rdf-syntax-ns#"
   xmlns:svg="http://www.w3.org/2000/svg"
   xmlns="http://www.w3.org/2000/svg"
   xmlns:sodipodi="http://sodipodi.sourceforge.net/DTD/sodipodi-0.dtd"
   xmlns:inkscape="http://www.inkscape.org/namespaces/inkscape"
   width="25"
   height="25"
   id="svg3591"
   version="1.1"
   inkscape:version="0.48.3.1 r9886"
   sodipodi:docname="New document 12">
  <defs
     id="defs3" />
  <sodipodi:namedview
     inkscape:document-units="mm"
     id="base"
     pagecolor="#ffffff"
     bordercolor="#666666"
     borderopacity="1.0"
     inkscape:pageopacity="0.0"
     inkscape:pageshadow="2"
     inkscape:zoom="20.880017"
     inkscape:cx="12.49999"
     inkscape:cy="12.50001"
     inkscape:current-layer="layer1"
     showgrid="false"
     units="px"
     inkscape:window-width="1366"
     inkscape:window-height="692"
     inkscape:window-x="0"
     inkscape:window-y="24"
     inkscape:window-maximized="1" />
  <metadata
     id="metadata4">
    <rdf:RDF>
      <cc:Work
         rdf:about="">
        <dc:format>image/svg+xml</dc:format>
        <dc:type
           rdf:resource="http://purl.org/dc/dcmitype/StillImage" />
        <dc:title></dc:title>
      </cc:Work>
    </rdf:RDF>
  </metadata>
  <g
     inkscape:label="Layer 1"
     inkscape:groupmode="layer"
     id="layer1"
     transform="translate(0,-1027.3622)">
    <g
       transform="translate(-517.28648,249.01374)"
       id="g3564">
      <path
         style="fill:#535353;stroke:#ffffff;stroke-width:1"
         inkscape:connector-curvature="0"
         d="m 541.78646,800.44688 c 0,1.32581 -1.07333,2.40156 -2.40195,2.40156 h -19.19738 c -1.32603,0 -2.40065,-1.07575 -2.40065,-2.40156 v -19.19686 c 0,-1.32581 1.07462,-2.40156 2.40065,-2.40156 h 19.19738 c 1.32862,0 2.40195,1.07575 2.40195,2.40156 v 19.19686 z"
         id="path3324" />
      <g
         transform="matrix(0.90591433,0,0,0.84660656,60.082015,129.67915)"
         id="g4194">
        <path
           style="fill:none;stroke:#535353;stroke-width:2.28373456;stroke-opacity:1"
           inkscape:connector-curvature="0"
           d="m 528.40806,786.11307 c 0.0534,-0.24615 0.0834,-0.50143 0.0834,-0.76191 0,-1.98748 -1.60996,-3.60117 -3.60026,-3.60117 -1.98769,0 -3.60025,1.61239 -3.60025,3.60117 0,0.23964 0.0273,0.47147 0.0703,0.69809 -0.82451,0.44934 -1.39112,1.31283 -1.39112,2.31699 0,1.46261 1.18532,2.64781 2.64809,2.64781 0.63434,0 1.21267,-0.22923 1.66726,-0.60302 v 2.41467 h 1.21138 v -2.68687 c 0.45589,0.46365 1.08372,0.758 1.7871,0.758 1.39764,0 2.52956,-1.1318 2.52956,-2.52928 10e-4,-0.99114 -0.57443,-1.83901 -1.40546,-2.25448 z"
           id="path3390" />
        <path
           style="fill:#ffffff"
           inkscape:connector-curvature="0"
           d="m 528.40806,786.11307 c 0.0534,-0.24615 0.0834,-0.50143 0.0834,-0.76191 0,-1.98748 -1.60996,-3.60117 -3.60026,-3.60117 -1.98769,0 -3.60025,1.61239 -3.60025,3.60117 0,0.23964 0.0273,0.47147 0.0703,0.69809 -0.82451,0.44934 -1.39112,1.31283 -1.39112,2.31699 0,1.46261 1.18532,2.64781 2.64809,2.64781 0.63434,0 1.21267,-0.22923 1.66726,-0.60302 v 2.41467 h 1.21138 v -2.68687 c 0.45589,0.46365 1.08372,0.758 1.7871,0.758 1.39764,0 2.52956,-1.1318 2.52956,-2.52928 10e-4,-0.99114 -0.57443,-1.83901 -1.40546,-2.25448 z"
           id="path3392" />
        <path
           id="path3394"
           d="m 528.40806,786.11307 c 0.0534,-0.24615 0.0834,-0.50143 0.0834,-0.76191 0,-1.98748 -1.60996,-3.60117 -3.60026,-3.60117 -1.98769,0 -3.60025,1.61239 -3.60025,3.60117 0,0.23964 0.0273,0.47147 0.0703,0.69809 -0.82451,0.44934 -1.39112,1.31283 -1.39112,2.31699 0,1.46261 1.18532,2.64781 2.64809,2.64781 0.63434,0 1.21267,-0.22923 1.66726,-0.60302 v 2.41467 h 1.21138 v -2.68687 c 0.45589,0.46365 1.08372,0.758 1.7871,0.758 1.39764,0 2.52956,-1.1318 2.52956,-2.52928 10e-4,-0.99114 -0.57443,-1.83901 -1.40546,-2.25448 z"
           inkscape:connector-curvature="0"
           style="fill:#ffffff" />
      </g>
      <path
         inkscape:connector-curvature="0"
         id="path3561"
         style="font-size:16px;font-style:normal;font-weight:bold;line-height:125%;letter-spacing:0px;word-spacing:0px;fill:#ffffff;fill-opacity:1;stroke:none;font-family:Sans;-inkscape-font-specification:Sans Bold"
         d="m 521.18317,781.7804 4.99218,0 c 1.48437,10e-6 2.62239,0.33074 3.41407,0.99218 0.79686,0.65626 1.1953,1.59376 1.19531,2.8125 -10e-6,1.22397 -0.39845,2.16668 -1.19531,2.82813 -0.79168,0.65625 -1.9297,0.98438 -3.41407,0.98437 l -1.98437,0 0,4.04688 -3.00781,0 0,-11.66406 m 3.00781,2.17968 0,3.25782 1.66406,0 c 0.58333,0 1.03385,-0.14062 1.35156,-0.42188 0.3177,-0.28645 0.47656,-0.6901 0.47657,-1.21094 -10e-6,-0.52082 -0.15887,-0.92186 -0.47657,-1.20312 -0.31771,-0.28124 -0.76823,-0.42187 -1.35156,-0.42188 l -1.66406,0" />
      <path
         style="fill:#ffffff"
         inkscape:connector-curvature="0"
         d="m 525.36941,797.40323 h 2.49588 l -0.82295,-2.14209 h -0.84944 l -0.82349,2.14209 z m -1.39519,-2.14209 v -0.79093 h 5.46782 v 0.79149 h -1.3806 l 0.82134,2.1421 h 2.03713 v 0.79149 h -1.72967 l 0.96238,2.49381 h -0.93428 l -0.96345,-2.49381 h -3.11026 l -0.95427,2.49268 h -0.9348 l 0.95534,-2.49381 h -1.71617 v -0.7915 h 2.02308 l 0.82296,-2.14209 h -1.36655 z"
         id="path3615" />
    </g>
  </g>
</svg>
