<?xml version="1.0" encoding="UTF-8" standalone="no"?>
<!-- Generator: Adobe Illustrator 15.0.2, SVG Export Plug-In . SVG Version: 6.00 Build 0)  -->
<svg xmlns:rdf="http://www.w3.org/1999/02/22-rdf-syntax-ns#" xmlns="http://www.w3.org/2000/svg" enable-background="new 0 0 28.347 28.347" xml:space="preserve" viewBox="0 0 25 25" version="1.1" y="0px" x="0px" xmlns:cc="http://creativecommons.org/ns#" xmlns:dc="http://purl.org/dc/elements/1.1/"><metadata><rdf:RDF><cc:Work rdf:about=""><dc:format>image/svg+xml</dc:format><dc:type rdf:resource="http://purl.org/dc/dcmitype/StillImage"/><dc:title/></cc:Work></rdf:RDF></metadata>
<g transform="matrix(1.2870013,0,0,1.2868688,-5.7954,-5.1282055)">
	<path fill="#ffb612" d="m23.428,21.068c0,1.018-0.824,1.844-1.844,1.844h-14.738c-1.018,0-1.843-0.826-1.843-1.844v-14.739c0-1.018,0.825-1.844,1.843-1.844h14.738c1.02,0,1.844,0.826,1.844,1.844v14.739z" stroke="#FFF"/>
		<rect height="1.418" width="9.921" y="8.688" x="9.255" fill="#FFF"/>
		<path fill="#FFF" d="M19.176,20.21h-9.921v-8.504h9.921v8.504zm-8.31-6.469c-0.393,0-0.709,0.316-0.709,0.709,0,0.391,0.316,0.708,0.709,0.708,0.392,0,0.708-0.317,0.708-0.708,0-0.392-0.316-0.709-0.708-0.709z"/>
</g>
</svg>
